<mxfile host="www.draw.io" modified="2019-11-25T02:20:32.874Z" agent="Mozilla/5.0 (Windows NT 10.0; Win64; x64) AppleWebKit/537.36 (KHTML, like Gecko) Chrome/78.0.3904.108 Safari/537.36" etag="05TqKq7Db8rsEXn960YY" version="12.2.9" type="github" pages="1">
  <diagram name="Page-1" id="e7e014a7-5840-1c2e-5031-d8a46d1fe8dd">
    <mxGraphModel dx="8460" dy="782" grid="0" gridSize="10" guides="1" tooltips="1" connect="1" arrows="1" fold="1" page="1" pageScale="1" pageWidth="3300" pageHeight="2339" background="#ffffff" math="0" shadow="0">
      <root>
        <mxCell id="0"/>
        <mxCell id="1" parent="0"/>
        <mxCell id="c9RxhLVqkA1hSZwayiJo-48" value="&lt;pre style=&quot;font-family: &amp;quot;droid sans mono&amp;quot;; font-size: 10px;&quot;&gt;&lt;pre style=&quot;font-family: &amp;quot;droid sans mono&amp;quot;; font-size: 10px;&quot;&gt;&lt;pre style=&quot;font-family: &amp;quot;droid sans mono&amp;quot;; font-size: 10px;&quot;&gt;&lt;pre style=&quot;font-family: &amp;quot;droid sans mono&amp;quot;; font-size: 10px;&quot;&gt;Test&lt;/pre&gt;&lt;/pre&gt;&lt;/pre&gt;&lt;/pre&gt;" style="shape=umlLifeline;perimeter=lifelinePerimeter;whiteSpace=wrap;html=1;container=1;collapsible=0;recursiveResize=0;outlineConnect=0;fillColor=#ffffff;fontStyle=0;labelBackgroundColor=none;fontSize=10;fontColor=#000000;verticalAlign=bottom;" parent="1" vertex="1">
          <mxGeometry x="-6329.5" y="200" width="150" height="300" as="geometry"/>
        </mxCell>
        <mxCell id="c9RxhLVqkA1hSZwayiJo-66" style="edgeStyle=orthogonalEdgeStyle;rounded=0;orthogonalLoop=1;jettySize=auto;html=1;labelBackgroundColor=none;fontSize=10;fontColor=#000000;verticalAlign=bottom;" parent="1" source="c9RxhLVqkA1hSZwayiJo-49" target="c9RxhLVqkA1hSZwayiJo-48" edge="1">
          <mxGeometry relative="1" as="geometry">
            <Array as="points">
              <mxPoint x="-6109.5" y="310"/>
              <mxPoint x="-6109.5" y="310"/>
            </Array>
          </mxGeometry>
        </mxCell>
        <mxCell id="c9RxhLVqkA1hSZwayiJo-94" value="resource" style="text;html=1;resizable=0;points=[];align=center;verticalAlign=middle;labelBackgroundColor=#ffffff;fontSize=10;fontColor=#000000;" parent="c9RxhLVqkA1hSZwayiJo-66" vertex="1" connectable="0">
          <mxGeometry x="-0.2278" y="2" relative="1" as="geometry">
            <mxPoint x="-16" y="-1.5" as="offset"/>
          </mxGeometry>
        </mxCell>
        <mxCell id="c9RxhLVqkA1hSZwayiJo-49" value="&lt;pre style=&quot;font-family: &amp;quot;droid sans mono&amp;quot;; font-size: 10px;&quot;&gt;&lt;pre style=&quot;font-family: &amp;quot;droid sans mono&amp;quot;; font-size: 10px;&quot;&gt;&lt;pre style=&quot;font-family: &amp;quot;droid sans mono&amp;quot;; font-size: 10px;&quot;&gt;ClassPathResource&lt;/pre&gt;&lt;/pre&gt;&lt;/pre&gt;" style="shape=umlLifeline;perimeter=lifelinePerimeter;whiteSpace=wrap;html=1;container=1;collapsible=0;recursiveResize=0;outlineConnect=0;fontStyle=0;labelBackgroundColor=none;fontSize=10;fontColor=#000000;verticalAlign=bottom;" parent="1" vertex="1">
          <mxGeometry x="-6049.5" y="200" width="150" height="300" as="geometry"/>
        </mxCell>
        <mxCell id="c9RxhLVqkA1hSZwayiJo-98" value="" style="html=1;points=[];perimeter=orthogonalPerimeter;labelBackgroundColor=none;fillColor=#ffffff;fontSize=10;fontColor=#000000;align=left;" parent="c9RxhLVqkA1hSZwayiJo-49" vertex="1">
          <mxGeometry x="70" y="80" width="10" height="30" as="geometry"/>
        </mxCell>
        <mxCell id="c9RxhLVqkA1hSZwayiJo-50" value="" style="endArrow=classic;html=1;fontStyle=0;labelBackgroundColor=none;fontSize=10;fontColor=#000000;verticalAlign=bottom;" parent="1" source="c9RxhLVqkA1hSZwayiJo-48" target="c9RxhLVqkA1hSZwayiJo-49" edge="1">
          <mxGeometry width="50" height="50" relative="1" as="geometry">
            <mxPoint x="-6149.5" y="330" as="sourcePoint"/>
            <mxPoint x="-6129.5" y="280" as="targetPoint"/>
            <Array as="points">
              <mxPoint x="-6029.5" y="280"/>
            </Array>
          </mxGeometry>
        </mxCell>
        <mxCell id="c9RxhLVqkA1hSZwayiJo-51" value="&lt;pre style=&quot;font-family: &amp;quot;droid sans mono&amp;quot;; font-size: 10px;&quot;&gt;&lt;span style=&quot;font-size: 10px;&quot;&gt;new &lt;/span&gt;ClassPathResource()&lt;/pre&gt;" style="text;html=1;resizable=0;points=[];align=center;verticalAlign=bottom;labelBackgroundColor=none;fontStyle=0;fontSize=10;fontColor=#000000;" parent="c9RxhLVqkA1hSZwayiJo-50" vertex="1" connectable="0">
          <mxGeometry x="0.1213" y="2" relative="1" as="geometry">
            <mxPoint x="-1.5" y="12" as="offset"/>
          </mxGeometry>
        </mxCell>
        <mxCell id="c9RxhLVqkA1hSZwayiJo-109" value="" style="edgeStyle=none;rounded=0;orthogonalLoop=1;jettySize=auto;html=1;labelBackgroundColor=none;fontSize=10;fontColor=#000000;" parent="1" source="c9RxhLVqkA1hSZwayiJo-52" target="c9RxhLVqkA1hSZwayiJo-107" edge="1">
          <mxGeometry relative="1" as="geometry">
            <Array as="points">
              <mxPoint x="-5699.5" y="420"/>
            </Array>
          </mxGeometry>
        </mxCell>
        <mxCell id="c9RxhLVqkA1hSZwayiJo-126" value="new XmlBeanDefinitionReader(this)" style="text;html=1;resizable=0;points=[];align=center;verticalAlign=middle;labelBackgroundColor=#ffffff;fontSize=10;fontColor=#000000;" parent="c9RxhLVqkA1hSZwayiJo-109" vertex="1" connectable="0">
          <mxGeometry x="-0.2882" relative="1" as="geometry">
            <mxPoint x="34.5" as="offset"/>
          </mxGeometry>
        </mxCell>
        <mxCell id="c9RxhLVqkA1hSZwayiJo-52" value="&lt;pre style=&quot;font-family: &amp;quot;droid sans mono&amp;quot;; font-size: 10px;&quot;&gt;&lt;pre style=&quot;font-family: &amp;quot;droid sans mono&amp;quot;; font-size: 10px;&quot;&gt;&lt;pre style=&quot;font-family: &amp;quot;droid sans mono&amp;quot;; font-size: 10px;&quot;&gt;&lt;pre style=&quot;font-family: &amp;quot;droid sans mono&amp;quot;; font-size: 10px;&quot;&gt;XmlBeanFactory&lt;/pre&gt;&lt;/pre&gt;&lt;/pre&gt;&lt;/pre&gt;" style="shape=umlLifeline;perimeter=lifelinePerimeter;whiteSpace=wrap;html=1;container=1;collapsible=0;recursiveResize=0;outlineConnect=0;fontStyle=0;labelBackgroundColor=none;fontSize=10;fontColor=#000000;verticalAlign=bottom;" parent="1" vertex="1">
          <mxGeometry x="-5889.5" y="200" width="150" height="300" as="geometry"/>
        </mxCell>
        <mxCell id="c9RxhLVqkA1hSZwayiJo-124" value="" style="html=1;points=[];perimeter=orthogonalPerimeter;labelBackgroundColor=none;fillColor=#ffffff;fontSize=10;fontColor=#000000;align=left;" parent="c9RxhLVqkA1hSZwayiJo-52" vertex="1">
          <mxGeometry x="70" y="210" width="10" height="70" as="geometry"/>
        </mxCell>
        <mxCell id="c9RxhLVqkA1hSZwayiJo-134" value="" style="html=1;points=[];perimeter=orthogonalPerimeter;labelBackgroundColor=none;fillColor=#ffffff;fontSize=10;fontColor=#000000;align=left;" parent="c9RxhLVqkA1hSZwayiJo-52" vertex="1">
          <mxGeometry x="70" y="140" width="10" height="50" as="geometry"/>
        </mxCell>
        <mxCell id="c9RxhLVqkA1hSZwayiJo-137" style="edgeStyle=none;rounded=0;orthogonalLoop=1;jettySize=auto;html=1;labelBackgroundColor=none;fontSize=10;fontColor=#000000;" parent="c9RxhLVqkA1hSZwayiJo-52" source="c9RxhLVqkA1hSZwayiJo-134" target="c9RxhLVqkA1hSZwayiJo-134" edge="1">
          <mxGeometry relative="1" as="geometry">
            <Array as="points">
              <mxPoint x="140" y="180"/>
            </Array>
          </mxGeometry>
        </mxCell>
        <mxCell id="c9RxhLVqkA1hSZwayiJo-138" value="super(parent:parentBeanFactory)" style="text;html=1;resizable=0;points=[];align=center;verticalAlign=middle;labelBackgroundColor=#ffffff;fontSize=10;fontColor=#000000;" parent="c9RxhLVqkA1hSZwayiJo-137" vertex="1" connectable="0">
          <mxGeometry x="-0.4067" y="-2" relative="1" as="geometry">
            <mxPoint x="16" y="13" as="offset"/>
          </mxGeometry>
        </mxCell>
        <mxCell id="c9RxhLVqkA1hSZwayiJo-107" value="&lt;pre style=&quot;font-family: &amp;#34;droid sans mono&amp;#34; ; font-size: 10px&quot;&gt;&lt;pre style=&quot;font-family: &amp;#34;droid sans mono&amp;#34; ; font-size: 10px&quot;&gt;&lt;pre style=&quot;font-family: &amp;#34;droid sans mono&amp;#34; ; font-size: 10px&quot;&gt;&lt;pre style=&quot;font-family: &amp;#34;droid sans mono&amp;#34; ; font-size: 10px&quot;&gt;XmlBeanDefinitionReader&lt;/pre&gt;&lt;/pre&gt;&lt;/pre&gt;&lt;/pre&gt;" style="shape=umlLifeline;perimeter=lifelinePerimeter;whiteSpace=wrap;html=1;container=1;collapsible=0;recursiveResize=0;outlineConnect=0;fontStyle=0;labelBackgroundColor=none;fontSize=10;fontColor=#000000;verticalAlign=bottom;" parent="1" vertex="1">
          <mxGeometry x="-5662.5" y="200" width="150" height="310" as="geometry"/>
        </mxCell>
        <mxCell id="c9RxhLVqkA1hSZwayiJo-121" value="" style="html=1;points=[];perimeter=orthogonalPerimeter;labelBackgroundColor=none;fillColor=#ffffff;fontSize=10;fontColor=#000000;align=left;" parent="c9RxhLVqkA1hSZwayiJo-107" vertex="1">
          <mxGeometry x="70" y="210" width="10" height="60" as="geometry"/>
        </mxCell>
        <mxCell id="c9RxhLVqkA1hSZwayiJo-130" style="edgeStyle=none;rounded=0;orthogonalLoop=1;jettySize=auto;html=1;labelBackgroundColor=none;fontSize=10;fontColor=#000000;" parent="c9RxhLVqkA1hSZwayiJo-107" source="c9RxhLVqkA1hSZwayiJo-121" target="c9RxhLVqkA1hSZwayiJo-121" edge="1">
          <mxGeometry relative="1" as="geometry">
            <Array as="points">
              <mxPoint x="163" y="220"/>
              <mxPoint x="163" y="250"/>
            </Array>
          </mxGeometry>
        </mxCell>
        <mxCell id="c9RxhLVqkA1hSZwayiJo-131" value="loadBeanDefinitions(resource)" style="text;html=1;resizable=0;points=[];align=center;verticalAlign=middle;labelBackgroundColor=#ffffff;fontSize=10;fontColor=#000000;" parent="c9RxhLVqkA1hSZwayiJo-130" vertex="1" connectable="0">
          <mxGeometry x="-0.4275" y="-1" relative="1" as="geometry">
            <mxPoint x="43" y="9" as="offset"/>
          </mxGeometry>
        </mxCell>
        <mxCell id="c9RxhLVqkA1hSZwayiJo-58" value="" style="endArrow=classic;html=1;fontStyle=0;labelBackgroundColor=none;fontSize=10;fontColor=#000000;verticalAlign=bottom;" parent="1" source="c9RxhLVqkA1hSZwayiJo-48" target="c9RxhLVqkA1hSZwayiJo-52" edge="1">
          <mxGeometry width="50" height="50" relative="1" as="geometry">
            <mxPoint x="-6259.5" y="410" as="sourcePoint"/>
            <mxPoint x="-6209.5" y="360" as="targetPoint"/>
            <Array as="points">
              <mxPoint x="-5989.5" y="340"/>
            </Array>
          </mxGeometry>
        </mxCell>
        <mxCell id="c9RxhLVqkA1hSZwayiJo-95" value="new XmlBeanFactory(resource)" style="text;html=1;resizable=0;points=[];align=center;verticalAlign=middle;labelBackgroundColor=#ffffff;fontSize=10;fontColor=#000000;" parent="c9RxhLVqkA1hSZwayiJo-58" vertex="1" connectable="0">
          <mxGeometry x="-0.0006" y="1" relative="1" as="geometry">
            <mxPoint as="offset"/>
          </mxGeometry>
        </mxCell>
        <mxCell id="c9RxhLVqkA1hSZwayiJo-73" style="edgeStyle=orthogonalEdgeStyle;rounded=0;orthogonalLoop=1;jettySize=auto;html=1;labelBackgroundColor=none;fontSize=10;fontColor=#000000;dashed=1;dashPattern=1 1;verticalAlign=bottom;" parent="1" source="c9RxhLVqkA1hSZwayiJo-72" edge="1">
          <mxGeometry relative="1" as="geometry">
            <mxPoint x="-6109.5" y="299.9999999999999" as="targetPoint"/>
          </mxGeometry>
        </mxCell>
        <mxCell id="c9RxhLVqkA1hSZwayiJo-72" value="初次定义Resource:&lt;br&gt;path：位置&lt;br&gt;classLoader：默认加载器" style="text;html=1;strokeColor=none;fillColor=none;align=left;verticalAlign=bottom;whiteSpace=wrap;rounded=0;labelBackgroundColor=none;fontSize=10;fontColor=#CDA2BE;" parent="1" vertex="1">
          <mxGeometry x="-6199.5" y="120" width="180" height="30" as="geometry"/>
        </mxCell>
        <mxCell id="c9RxhLVqkA1hSZwayiJo-129" style="edgeStyle=none;rounded=0;orthogonalLoop=1;jettySize=auto;html=1;labelBackgroundColor=none;fontSize=10;fontColor=#000000;" parent="1" source="c9RxhLVqkA1hSZwayiJo-121" target="c9RxhLVqkA1hSZwayiJo-124" edge="1">
          <mxGeometry relative="1" as="geometry">
            <Array as="points">
              <mxPoint x="-5699.5" y="460"/>
            </Array>
          </mxGeometry>
        </mxCell>
        <mxCell id="c9RxhLVqkA1hSZwayiJo-133" style="edgeStyle=none;rounded=0;orthogonalLoop=1;jettySize=auto;html=1;labelBackgroundColor=none;fontSize=10;fontColor=#000000;" parent="1" source="c9RxhLVqkA1hSZwayiJo-124" target="c9RxhLVqkA1hSZwayiJo-48" edge="1">
          <mxGeometry relative="1" as="geometry">
            <Array as="points">
              <mxPoint x="-6039.5" y="470"/>
            </Array>
          </mxGeometry>
        </mxCell>
        <mxCell id="c9RxhLVqkA1hSZwayiJo-139" value="BeanFactory" style="text;html=1;resizable=0;points=[];align=center;verticalAlign=middle;labelBackgroundColor=#ffffff;fontSize=10;fontColor=#000000;" parent="c9RxhLVqkA1hSZwayiJo-133" vertex="1" connectable="0">
          <mxGeometry x="0.0746" y="4" relative="1" as="geometry">
            <mxPoint y="-3" as="offset"/>
          </mxGeometry>
        </mxCell>
        <mxCell id="c9RxhLVqkA1hSZwayiJo-147" value="" style="edgeStyle=none;rounded=0;orthogonalLoop=1;jettySize=auto;html=1;labelBackgroundColor=none;fontSize=10;fontColor=#000000;" parent="1" source="c9RxhLVqkA1hSZwayiJo-140" target="c9RxhLVqkA1hSZwayiJo-145" edge="1">
          <mxGeometry relative="1" as="geometry">
            <Array as="points">
              <mxPoint x="-6129.5" y="670"/>
            </Array>
          </mxGeometry>
        </mxCell>
        <mxCell id="c9RxhLVqkA1hSZwayiJo-164" value="super(parentBeanFactory)" style="text;html=1;resizable=0;points=[];align=center;verticalAlign=middle;labelBackgroundColor=#ffffff;fontSize=10;fontColor=#000000;" parent="c9RxhLVqkA1hSZwayiJo-147" vertex="1" connectable="0">
          <mxGeometry x="-0.1696" relative="1" as="geometry">
            <mxPoint x="1" as="offset"/>
          </mxGeometry>
        </mxCell>
        <mxCell id="c9RxhLVqkA1hSZwayiJo-140" value="&lt;pre style=&quot;font-family: &amp;quot;droid sans mono&amp;quot;; font-size: 10px;&quot;&gt;&lt;pre style=&quot;font-family: &amp;quot;droid sans mono&amp;quot;; font-size: 10px;&quot;&gt;&lt;pre style=&quot;font-family: &amp;quot;droid sans mono&amp;quot;; font-size: 10px;&quot;&gt;&lt;pre style=&quot;font-family: &amp;quot;droid sans mono&amp;quot;; font-size: 10px;&quot;&gt;XmlBeanFactory&lt;/pre&gt;&lt;/pre&gt;&lt;/pre&gt;&lt;/pre&gt;" style="shape=umlLifeline;perimeter=lifelinePerimeter;whiteSpace=wrap;html=1;container=1;collapsible=0;recursiveResize=0;outlineConnect=0;fontStyle=0;labelBackgroundColor=none;fontSize=10;fontColor=#000000;verticalAlign=bottom;" parent="1" vertex="1">
          <mxGeometry x="-6329.5" y="530" width="150" height="410" as="geometry"/>
        </mxCell>
        <mxCell id="c9RxhLVqkA1hSZwayiJo-142" value="" style="html=1;points=[];perimeter=orthogonalPerimeter;labelBackgroundColor=none;fillColor=#ffffff;fontSize=10;fontColor=#000000;align=left;" parent="c9RxhLVqkA1hSZwayiJo-140" vertex="1">
          <mxGeometry x="70" y="140" width="10" height="230" as="geometry"/>
        </mxCell>
        <mxCell id="c9RxhLVqkA1hSZwayiJo-150" value="" style="edgeStyle=none;rounded=0;orthogonalLoop=1;jettySize=auto;html=1;labelBackgroundColor=none;fontSize=10;fontColor=#000000;" parent="1" source="c9RxhLVqkA1hSZwayiJo-145" target="c9RxhLVqkA1hSZwayiJo-148" edge="1">
          <mxGeometry relative="1" as="geometry">
            <Array as="points">
              <mxPoint x="-5899.5" y="680"/>
            </Array>
          </mxGeometry>
        </mxCell>
        <mxCell id="c9RxhLVqkA1hSZwayiJo-165" value="super(parentBeanFactory)" style="text;html=1;resizable=0;points=[];align=center;verticalAlign=middle;labelBackgroundColor=#ffffff;fontSize=10;fontColor=#000000;" parent="c9RxhLVqkA1hSZwayiJo-150" vertex="1" connectable="0">
          <mxGeometry x="-0.2391" y="-3" relative="1" as="geometry">
            <mxPoint x="17.5" y="-3" as="offset"/>
          </mxGeometry>
        </mxCell>
        <mxCell id="c9RxhLVqkA1hSZwayiJo-145" value="&lt;pre style=&quot;font-family: &amp;#34;droid sans mono&amp;#34; ; font-size: 10px&quot;&gt;&lt;pre style=&quot;font-family: &amp;#34;droid sans mono&amp;#34; ; font-size: 10px&quot;&gt;&lt;pre style=&quot;font-family: &amp;#34;droid sans mono&amp;#34; ; font-size: 10px&quot;&gt;&lt;pre style=&quot;font-family: &amp;#34;droid sans mono&amp;#34; ; font-size: 10px&quot;&gt;DefaultListableBeanFactory&lt;/pre&gt;&lt;/pre&gt;&lt;/pre&gt;&lt;/pre&gt;" style="shape=umlLifeline;perimeter=lifelinePerimeter;whiteSpace=wrap;html=1;container=1;collapsible=0;recursiveResize=0;outlineConnect=0;fontStyle=0;labelBackgroundColor=none;fontSize=10;fontColor=#000000;verticalAlign=bottom;" parent="1" vertex="1">
          <mxGeometry x="-6099.5" y="530" width="150" height="410" as="geometry"/>
        </mxCell>
        <mxCell id="c9RxhLVqkA1hSZwayiJo-146" value="" style="html=1;points=[];perimeter=orthogonalPerimeter;labelBackgroundColor=none;fillColor=#ffffff;fontSize=10;fontColor=#000000;align=left;" parent="c9RxhLVqkA1hSZwayiJo-145" vertex="1">
          <mxGeometry x="70" y="140" width="10" height="230" as="geometry"/>
        </mxCell>
        <mxCell id="c9RxhLVqkA1hSZwayiJo-148" value="&lt;pre style=&quot;font-family: &amp;#34;droid sans mono&amp;#34; ; font-size: 10px&quot;&gt;&lt;pre style=&quot;font-family: &amp;#34;droid sans mono&amp;#34; ; font-size: 10px&quot;&gt;&lt;pre style=&quot;font-family: &amp;#34;droid sans mono&amp;#34; ; font-size: 10px&quot;&gt;&lt;pre style=&quot;font-family: &amp;#34;droid sans mono&amp;#34; ; font-size: 10px&quot;&gt;AbstractAutowireCapableBeanFactory&lt;/pre&gt;&lt;/pre&gt;&lt;/pre&gt;&lt;/pre&gt;" style="shape=umlLifeline;perimeter=lifelinePerimeter;whiteSpace=wrap;html=1;container=1;collapsible=0;recursiveResize=0;outlineConnect=0;fontStyle=0;labelBackgroundColor=none;fontSize=10;fontColor=#000000;verticalAlign=bottom;" parent="1" vertex="1">
          <mxGeometry x="-5869.5" y="530" width="150" height="410" as="geometry"/>
        </mxCell>
        <mxCell id="c9RxhLVqkA1hSZwayiJo-149" value="" style="html=1;points=[];perimeter=orthogonalPerimeter;labelBackgroundColor=none;fillColor=#ffffff;fontSize=10;fontColor=#000000;align=left;" parent="c9RxhLVqkA1hSZwayiJo-148" vertex="1">
          <mxGeometry x="70" y="140" width="10" height="210" as="geometry"/>
        </mxCell>
        <mxCell id="c9RxhLVqkA1hSZwayiJo-154" value="&lt;pre style=&quot;font-family: &amp;#34;droid sans mono&amp;#34; ; font-size: 10px&quot;&gt;&lt;pre style=&quot;font-family: &amp;#34;droid sans mono&amp;#34; ; font-size: 10px&quot;&gt;&lt;pre style=&quot;font-family: &amp;#34;droid sans mono&amp;#34; ; font-size: 10px&quot;&gt;&lt;pre style=&quot;font-family: &amp;#34;droid sans mono&amp;#34; ; font-size: 10px&quot;&gt;AbstractBeanFactory&lt;/pre&gt;&lt;/pre&gt;&lt;/pre&gt;&lt;/pre&gt;" style="shape=umlLifeline;perimeter=lifelinePerimeter;whiteSpace=wrap;html=1;container=1;collapsible=0;recursiveResize=0;outlineConnect=0;fontStyle=0;labelBackgroundColor=none;fontSize=10;fontColor=#000000;verticalAlign=bottom;" parent="1" vertex="1">
          <mxGeometry x="-5559.5" y="530" width="150" height="410" as="geometry"/>
        </mxCell>
        <mxCell id="c9RxhLVqkA1hSZwayiJo-155" value="" style="html=1;points=[];perimeter=orthogonalPerimeter;labelBackgroundColor=none;fillColor=#ffffff;fontSize=10;fontColor=#000000;align=left;" parent="c9RxhLVqkA1hSZwayiJo-154" vertex="1">
          <mxGeometry x="70" y="150" width="10" height="30" as="geometry"/>
        </mxCell>
        <mxCell id="c9RxhLVqkA1hSZwayiJo-176" value="" style="html=1;points=[];perimeter=orthogonalPerimeter;labelBackgroundColor=none;fillColor=#ffffff;fontSize=10;fontColor=#000000;align=left;" parent="c9RxhLVqkA1hSZwayiJo-154" vertex="1">
          <mxGeometry x="70" y="260" width="10" height="50" as="geometry"/>
        </mxCell>
        <mxCell id="c9RxhLVqkA1hSZwayiJo-185" style="edgeStyle=none;rounded=0;orthogonalLoop=1;jettySize=auto;html=1;labelBackgroundColor=none;fontSize=10;fontColor=#000000;" parent="c9RxhLVqkA1hSZwayiJo-154" source="c9RxhLVqkA1hSZwayiJo-176" target="c9RxhLVqkA1hSZwayiJo-176" edge="1">
          <mxGeometry relative="1" as="geometry"/>
        </mxCell>
        <mxCell id="c9RxhLVqkA1hSZwayiJo-186" value="this.parentBeanFactory=parentBeanFactory" style="text;html=1;resizable=0;points=[];align=center;verticalAlign=middle;labelBackgroundColor=#ffffff;fontSize=10;fontColor=#000000;" parent="c9RxhLVqkA1hSZwayiJo-185" vertex="1" connectable="0">
          <mxGeometry x="-0.3333" y="-5" relative="1" as="geometry">
            <mxPoint x="55" y="10" as="offset"/>
          </mxGeometry>
        </mxCell>
        <mxCell id="c9RxhLVqkA1hSZwayiJo-170" style="edgeStyle=none;rounded=0;orthogonalLoop=1;jettySize=auto;html=1;entryX=0.1;entryY=0.11;entryDx=0;entryDy=0;entryPerimeter=0;labelBackgroundColor=none;fontSize=10;fontColor=#000000;" parent="1" source="c9RxhLVqkA1hSZwayiJo-149" target="c9RxhLVqkA1hSZwayiJo-152" edge="1">
          <mxGeometry relative="1" as="geometry"/>
        </mxCell>
        <mxCell id="c9RxhLVqkA1hSZwayiJo-171" value="this()" style="text;html=1;resizable=0;points=[];align=center;verticalAlign=middle;labelBackgroundColor=#ffffff;fontSize=10;fontColor=#000000;" parent="c9RxhLVqkA1hSZwayiJo-170" vertex="1" connectable="0">
          <mxGeometry x="-0.1131" y="1" relative="1" as="geometry">
            <mxPoint as="offset"/>
          </mxGeometry>
        </mxCell>
        <mxCell id="c9RxhLVqkA1hSZwayiJo-173" style="edgeStyle=none;rounded=0;orthogonalLoop=1;jettySize=auto;html=1;entryX=0.9;entryY=0.29;entryDx=0;entryDy=0;entryPerimeter=0;labelBackgroundColor=none;fontSize=10;fontColor=#000000;" parent="1" source="c9RxhLVqkA1hSZwayiJo-155" target="c9RxhLVqkA1hSZwayiJo-152" edge="1">
          <mxGeometry relative="1" as="geometry"/>
        </mxCell>
        <mxCell id="c9RxhLVqkA1hSZwayiJo-189" value=":void" style="text;html=1;resizable=0;points=[];align=center;verticalAlign=middle;labelBackgroundColor=#ffffff;fontSize=10;fontColor=#000000;" parent="c9RxhLVqkA1hSZwayiJo-173" vertex="1" connectable="0">
          <mxGeometry x="-0.095" y="2" relative="1" as="geometry">
            <mxPoint as="offset"/>
          </mxGeometry>
        </mxCell>
        <mxCell id="c9RxhLVqkA1hSZwayiJo-177" style="edgeStyle=none;rounded=0;orthogonalLoop=1;jettySize=auto;html=1;entryX=0.033;entryY=0.233;entryDx=0;entryDy=0;entryPerimeter=0;labelBackgroundColor=none;fontSize=10;fontColor=#000000;" parent="1" source="c9RxhLVqkA1hSZwayiJo-149" target="c9RxhLVqkA1hSZwayiJo-176" edge="1">
          <mxGeometry relative="1" as="geometry"/>
        </mxCell>
        <mxCell id="c9RxhLVqkA1hSZwayiJo-178" value="setParentBeanFactory(parentBeanFactory)" style="text;html=1;resizable=0;points=[];align=center;verticalAlign=middle;labelBackgroundColor=#ffffff;fontSize=10;fontColor=#000000;" parent="c9RxhLVqkA1hSZwayiJo-177" vertex="1" connectable="0">
          <mxGeometry x="-0.1732" y="-1" relative="1" as="geometry">
            <mxPoint as="offset"/>
          </mxGeometry>
        </mxCell>
        <mxCell id="c9RxhLVqkA1hSZwayiJo-179" style="edgeStyle=none;rounded=0;orthogonalLoop=1;jettySize=auto;html=1;entryX=1;entryY=0.433;entryDx=0;entryDy=0;entryPerimeter=0;labelBackgroundColor=none;fontSize=10;fontColor=#000000;" parent="1" source="c9RxhLVqkA1hSZwayiJo-152" target="c9RxhLVqkA1hSZwayiJo-149" edge="1">
          <mxGeometry relative="1" as="geometry">
            <Array as="points">
              <mxPoint x="-5759.5" y="760"/>
            </Array>
          </mxGeometry>
        </mxCell>
        <mxCell id="c9RxhLVqkA1hSZwayiJo-180" value=":void" style="text;html=1;resizable=0;points=[];align=center;verticalAlign=middle;labelBackgroundColor=#ffffff;fontSize=10;fontColor=#000000;" parent="c9RxhLVqkA1hSZwayiJo-179" vertex="1" connectable="0">
          <mxGeometry x="-0.2606" relative="1" as="geometry">
            <mxPoint as="offset"/>
          </mxGeometry>
        </mxCell>
        <mxCell id="c9RxhLVqkA1hSZwayiJo-183" style="edgeStyle=none;rounded=0;orthogonalLoop=1;jettySize=auto;html=1;entryX=0.95;entryY=0.783;entryDx=0;entryDy=0;entryPerimeter=0;labelBackgroundColor=none;fontSize=10;fontColor=#000000;" parent="1" source="c9RxhLVqkA1hSZwayiJo-176" target="c9RxhLVqkA1hSZwayiJo-149" edge="1">
          <mxGeometry relative="1" as="geometry"/>
        </mxCell>
        <mxCell id="c9RxhLVqkA1hSZwayiJo-184" value=":void" style="text;html=1;resizable=0;points=[];align=center;verticalAlign=middle;labelBackgroundColor=#ffffff;fontSize=10;fontColor=#000000;" parent="c9RxhLVqkA1hSZwayiJo-183" vertex="1" connectable="0">
          <mxGeometry x="-0.1136" y="-1" relative="1" as="geometry">
            <mxPoint as="offset"/>
          </mxGeometry>
        </mxCell>
        <mxCell id="c9RxhLVqkA1hSZwayiJo-187" style="edgeStyle=none;rounded=0;orthogonalLoop=1;jettySize=auto;html=1;entryX=-0.2;entryY=0.267;entryDx=0;entryDy=0;entryPerimeter=0;labelBackgroundColor=none;fontSize=10;fontColor=#000000;" parent="1" source="c9RxhLVqkA1hSZwayiJo-152" target="c9RxhLVqkA1hSZwayiJo-155" edge="1">
          <mxGeometry relative="1" as="geometry"/>
        </mxCell>
        <mxCell id="c9RxhLVqkA1hSZwayiJo-188" value="super()" style="text;html=1;resizable=0;points=[];align=center;verticalAlign=middle;labelBackgroundColor=#ffffff;fontSize=10;fontColor=#000000;" parent="c9RxhLVqkA1hSZwayiJo-187" vertex="1" connectable="0">
          <mxGeometry x="0.3028" y="-1" relative="1" as="geometry">
            <mxPoint as="offset"/>
          </mxGeometry>
        </mxCell>
        <mxCell id="c9RxhLVqkA1hSZwayiJo-190" style="edgeStyle=none;rounded=0;orthogonalLoop=1;jettySize=auto;html=1;entryX=0.9;entryY=0.804;entryDx=0;entryDy=0;entryPerimeter=0;labelBackgroundColor=none;fontSize=10;fontColor=#000000;" parent="1" source="c9RxhLVqkA1hSZwayiJo-149" target="c9RxhLVqkA1hSZwayiJo-146" edge="1">
          <mxGeometry relative="1" as="geometry"/>
        </mxCell>
        <mxCell id="c9RxhLVqkA1hSZwayiJo-192" value=":void" style="text;html=1;resizable=0;points=[];align=center;verticalAlign=middle;labelBackgroundColor=#ffffff;fontSize=10;fontColor=#000000;" parent="c9RxhLVqkA1hSZwayiJo-190" vertex="1" connectable="0">
          <mxGeometry x="-0.086" y="2" relative="1" as="geometry">
            <mxPoint as="offset"/>
          </mxGeometry>
        </mxCell>
        <mxCell id="c9RxhLVqkA1hSZwayiJo-191" style="edgeStyle=none;rounded=0;orthogonalLoop=1;jettySize=auto;html=1;entryX=0.9;entryY=0.948;entryDx=0;entryDy=0;entryPerimeter=0;labelBackgroundColor=none;fontSize=10;fontColor=#000000;" parent="1" edge="1">
          <mxGeometry relative="1" as="geometry">
            <mxPoint x="-6029.5" y="870.04" as="sourcePoint"/>
            <mxPoint x="-6250.5" y="870.04" as="targetPoint"/>
          </mxGeometry>
        </mxCell>
        <mxCell id="c9RxhLVqkA1hSZwayiJo-193" value=":void" style="text;html=1;resizable=0;points=[];align=center;verticalAlign=middle;labelBackgroundColor=#ffffff;fontSize=10;fontColor=#000000;" parent="c9RxhLVqkA1hSZwayiJo-191" vertex="1" connectable="0">
          <mxGeometry x="-0.1041" y="-2" relative="1" as="geometry">
            <mxPoint as="offset"/>
          </mxGeometry>
        </mxCell>
        <mxCell id="c9RxhLVqkA1hSZwayiJo-152" value="" style="html=1;points=[];perimeter=orthogonalPerimeter;labelBackgroundColor=none;fillColor=#ffffff;fontSize=10;fontColor=#000000;align=left;" parent="1" vertex="1">
          <mxGeometry x="-5739.5" y="670" width="10" height="100" as="geometry"/>
        </mxCell>
        <mxCell id="c9RxhLVqkA1hSZwayiJo-174" style="edgeStyle=none;rounded=0;orthogonalLoop=1;jettySize=auto;html=1;labelBackgroundColor=none;fontSize=10;fontColor=#000000;" parent="1" source="c9RxhLVqkA1hSZwayiJo-152" target="c9RxhLVqkA1hSZwayiJo-152" edge="1">
          <mxGeometry relative="1" as="geometry">
            <Array as="points">
              <mxPoint x="-5649.5" y="720"/>
              <mxPoint x="-5649.5" y="750"/>
            </Array>
          </mxGeometry>
        </mxCell>
        <mxCell id="c9RxhLVqkA1hSZwayiJo-175" value="&lt;div&gt;&lt;span style=&quot;font-size: 10px&quot;&gt;ignoreDependencyInterface(BeanNameAware.class);&lt;/span&gt;&lt;/div&gt;&lt;div&gt;&lt;span style=&quot;font-size: 10px&quot;&gt;ignoreDependencyInterface(BeanFactoryAware.class);&lt;/span&gt;&lt;/div&gt;&lt;div&gt;&lt;span style=&quot;font-size: 10px&quot;&gt;ignoreDependencyInterface(BeanClassLoaderAware.class);&lt;/span&gt;&lt;/div&gt;" style="text;html=1;resizable=0;points=[];align=left;verticalAlign=middle;labelBackgroundColor=#ffffff;fontSize=10;fontColor=#000000;" parent="c9RxhLVqkA1hSZwayiJo-174" vertex="1" connectable="0">
          <mxGeometry x="-0.2516" y="-8" relative="1" as="geometry">
            <mxPoint x="19" y="7" as="offset"/>
          </mxGeometry>
        </mxCell>
        <mxCell id="c9RxhLVqkA1hSZwayiJo-195" style="edgeStyle=none;rounded=0;orthogonalLoop=1;jettySize=auto;html=1;labelBackgroundColor=none;fontSize=10;fontColor=#000000;" parent="1" source="c9RxhLVqkA1hSZwayiJo-194" edge="1">
          <mxGeometry relative="1" as="geometry">
            <mxPoint x="-5423" y="714" as="targetPoint"/>
          </mxGeometry>
        </mxCell>
        <mxCell id="c9RxhLVqkA1hSZwayiJo-194" value="private final Set&amp;lt;Class&amp;lt;?&amp;gt;&amp;gt; ignoredDependencyInterfaces = new HashSet&amp;lt;&amp;gt;();&lt;br&gt;&lt;span style=&quot;font-size: 10px&quot;&gt;自动装配时忽略指定接口或类的依赖注入&lt;/span&gt;" style="text;html=1;strokeColor=none;fillColor=none;align=left;verticalAlign=middle;whiteSpace=wrap;rounded=0;labelBackgroundColor=none;fontSize=10;fontColor=#000000;" parent="1" vertex="1">
          <mxGeometry x="-5604.5" y="596" width="480" height="50" as="geometry"/>
        </mxCell>
        <mxCell id="c9RxhLVqkA1hSZwayiJo-226" value="" style="edgeStyle=none;rounded=0;orthogonalLoop=1;jettySize=auto;html=1;labelBackgroundColor=none;fontSize=10;fontColor=#000000;" parent="1" source="c9RxhLVqkA1hSZwayiJo-207" target="c9RxhLVqkA1hSZwayiJo-222" edge="1">
          <mxGeometry relative="1" as="geometry">
            <Array as="points">
              <mxPoint x="-6119.5" y="1030"/>
            </Array>
          </mxGeometry>
        </mxCell>
        <mxCell id="c9RxhLVqkA1hSZwayiJo-227" value="new EncodedResource(resource)" style="text;html=1;resizable=0;points=[];align=center;verticalAlign=middle;labelBackgroundColor=#ffffff;fontSize=10;fontColor=#000000;" parent="c9RxhLVqkA1hSZwayiJo-226" vertex="1" connectable="0">
          <mxGeometry x="0.1783" y="-37" relative="1" as="geometry">
            <mxPoint x="-20.5" y="-37" as="offset"/>
          </mxGeometry>
        </mxCell>
        <mxCell id="c9RxhLVqkA1hSZwayiJo-207" value="&lt;pre style=&quot;font-family: &amp;#34;droid sans mono&amp;#34; ; font-size: 10px&quot;&gt;&lt;pre style=&quot;font-family: &amp;#34;droid sans mono&amp;#34; ; font-size: 10px&quot;&gt;&lt;pre style=&quot;font-family: &amp;#34;droid sans mono&amp;#34; ; font-size: 10px&quot;&gt;&lt;pre style=&quot;font-family: &amp;#34;droid sans mono&amp;#34; ; font-size: 10px&quot;&gt;XmlBeanDefinitionReader&lt;/pre&gt;&lt;/pre&gt;&lt;/pre&gt;&lt;/pre&gt;" style="shape=umlLifeline;perimeter=lifelinePerimeter;whiteSpace=wrap;html=1;container=1;collapsible=0;recursiveResize=0;outlineConnect=0;fontStyle=0;labelBackgroundColor=none;fontSize=10;fontColor=#000000;verticalAlign=bottom;" parent="1" vertex="1">
          <mxGeometry x="-6329.5" y="960" width="150" height="640" as="geometry"/>
        </mxCell>
        <mxCell id="c9RxhLVqkA1hSZwayiJo-208" value="" style="html=1;points=[];perimeter=orthogonalPerimeter;labelBackgroundColor=none;fillColor=#ffffff;fontSize=10;fontColor=#000000;align=left;" parent="c9RxhLVqkA1hSZwayiJo-207" vertex="1">
          <mxGeometry x="70" y="60" width="10" height="580" as="geometry"/>
        </mxCell>
        <mxCell id="c9RxhLVqkA1hSZwayiJo-215" value="" style="endArrow=classic;html=1;labelBackgroundColor=none;fontSize=10;fontColor=#000000;" parent="c9RxhLVqkA1hSZwayiJo-207" edge="1">
          <mxGeometry width="50" height="50" relative="1" as="geometry">
            <mxPoint y="60" as="sourcePoint"/>
            <mxPoint x="70" y="60" as="targetPoint"/>
          </mxGeometry>
        </mxCell>
        <mxCell id="c9RxhLVqkA1hSZwayiJo-216" value="loadBeanDefinitions(resource:Resource)" style="text;html=1;resizable=0;points=[];align=center;verticalAlign=middle;labelBackgroundColor=#ffffff;fontSize=10;fontColor=#000000;" parent="c9RxhLVqkA1hSZwayiJo-215" vertex="1" connectable="0">
          <mxGeometry x="0.3507" y="2" relative="1" as="geometry">
            <mxPoint x="-107" y="2" as="offset"/>
          </mxGeometry>
        </mxCell>
        <mxCell id="c9RxhLVqkA1hSZwayiJo-222" value="&lt;pre style=&quot;font-family: &amp;#34;droid sans mono&amp;#34; ; font-size: 10px&quot;&gt;&lt;pre style=&quot;font-family: &amp;#34;droid sans mono&amp;#34; ; font-size: 10px&quot;&gt;&lt;pre style=&quot;font-family: &amp;#34;droid sans mono&amp;#34; ; font-size: 10px&quot;&gt;&lt;pre style=&quot;font-family: &amp;#34;droid sans mono&amp;#34; ; font-size: 10px&quot;&gt;EncodedResource&lt;/pre&gt;&lt;/pre&gt;&lt;/pre&gt;&lt;/pre&gt;" style="shape=umlLifeline;perimeter=lifelinePerimeter;whiteSpace=wrap;html=1;container=1;collapsible=0;recursiveResize=0;outlineConnect=0;fontStyle=0;labelBackgroundColor=none;fontSize=10;fontColor=#000000;verticalAlign=bottom;" parent="1" vertex="1">
          <mxGeometry x="-6099.5" y="960" width="150" height="500" as="geometry"/>
        </mxCell>
        <mxCell id="c9RxhLVqkA1hSZwayiJo-223" value="" style="html=1;points=[];perimeter=orthogonalPerimeter;labelBackgroundColor=none;fillColor=#ffffff;fontSize=10;fontColor=#000000;align=left;" parent="c9RxhLVqkA1hSZwayiJo-222" vertex="1">
          <mxGeometry x="70" y="70" width="10" height="110" as="geometry"/>
        </mxCell>
        <mxCell id="c9RxhLVqkA1hSZwayiJo-232" style="edgeStyle=none;rounded=0;orthogonalLoop=1;jettySize=auto;html=1;labelBackgroundColor=none;fontSize=10;fontColor=#000000;" parent="c9RxhLVqkA1hSZwayiJo-222" source="c9RxhLVqkA1hSZwayiJo-223" target="c9RxhLVqkA1hSZwayiJo-223" edge="1">
          <mxGeometry relative="1" as="geometry">
            <Array as="points">
              <mxPoint x="110" y="70"/>
              <mxPoint x="110.5" y="90"/>
            </Array>
          </mxGeometry>
        </mxCell>
        <mxCell id="c9RxhLVqkA1hSZwayiJo-233" value="&lt;div&gt;this(resource, null:Encode, null:Charset);&lt;br&gt;&lt;/div&gt;" style="text;html=1;resizable=0;points=[];align=center;verticalAlign=middle;labelBackgroundColor=#ffffff;fontSize=10;fontColor=#000000;" parent="c9RxhLVqkA1hSZwayiJo-232" vertex="1" connectable="0">
          <mxGeometry x="-0.4" y="-11" relative="1" as="geometry">
            <mxPoint x="94.5" y="-1" as="offset"/>
          </mxGeometry>
        </mxCell>
        <mxCell id="c9RxhLVqkA1hSZwayiJo-239" style="edgeStyle=none;rounded=0;orthogonalLoop=1;jettySize=auto;html=1;labelBackgroundColor=none;fontSize=10;fontColor=#000000;" parent="c9RxhLVqkA1hSZwayiJo-222" edge="1">
          <mxGeometry relative="1" as="geometry">
            <mxPoint x="80.5" y="133" as="sourcePoint"/>
            <mxPoint x="80.5" y="163" as="targetPoint"/>
            <Array as="points">
              <mxPoint x="109.5" y="133"/>
              <mxPoint x="109.5" y="163"/>
            </Array>
          </mxGeometry>
        </mxCell>
        <mxCell id="c9RxhLVqkA1hSZwayiJo-240" value="&lt;div&gt;&lt;span style=&quot;font-size: 10px&quot;&gt;this.resource = resource;&lt;/span&gt;&lt;/div&gt;&lt;div&gt;&lt;span style=&quot;font-size: 10px&quot;&gt;this.encoding = encoding;&lt;/span&gt;&lt;/div&gt;&lt;div&gt;this.charset = charset;&lt;/div&gt;" style="text;html=1;resizable=0;points=[];align=left;verticalAlign=middle;labelBackgroundColor=#ffffff;fontSize=10;fontColor=#000000;" parent="c9RxhLVqkA1hSZwayiJo-239" vertex="1" connectable="0">
          <mxGeometry x="0.1467" y="1" relative="1" as="geometry">
            <mxPoint x="-1" y="-7.5" as="offset"/>
          </mxGeometry>
        </mxCell>
        <mxCell id="c9RxhLVqkA1hSZwayiJo-247" value="&lt;pre style=&quot;font-family: &amp;#34;droid sans mono&amp;#34; ; font-size: 10px&quot;&gt;&lt;pre style=&quot;font-family: &amp;#34;droid sans mono&amp;#34; ; font-size: 10px&quot;&gt;&lt;pre style=&quot;font-family: &amp;#34;droid sans mono&amp;#34; ; font-size: 10px&quot;&gt;&lt;pre style=&quot;font-family: &amp;#34;droid sans mono&amp;#34; ; font-size: 10px&quot;&gt;Object&lt;/pre&gt;&lt;/pre&gt;&lt;/pre&gt;&lt;/pre&gt;" style="shape=umlLifeline;perimeter=lifelinePerimeter;whiteSpace=wrap;html=1;container=1;collapsible=0;recursiveResize=0;outlineConnect=0;fontStyle=0;labelBackgroundColor=none;fontSize=10;fontColor=#000000;verticalAlign=bottom;" parent="1" vertex="1">
          <mxGeometry x="-5869.5" y="960" width="210.5" height="500" as="geometry"/>
        </mxCell>
        <mxCell id="c9RxhLVqkA1hSZwayiJo-248" value="" style="html=1;points=[];perimeter=orthogonalPerimeter;labelBackgroundColor=none;fillColor=#ffffff;fontSize=10;fontColor=#000000;align=left;" parent="c9RxhLVqkA1hSZwayiJo-247" vertex="1">
          <mxGeometry x="70" y="90" width="10" height="40" as="geometry"/>
        </mxCell>
        <mxCell id="OM_o0Kiukijb_UL5lkhj-6" value="加载XML文件，并得到对应的Document" style="whiteSpace=wrap;html=1;rounded=1;arcSize=50;align=center;verticalAlign=middle;container=1;recursiveResize=0;strokeWidth=1;autosize=1;spacing=4;treeFolding=1;treeMoving=1;" parent="c9RxhLVqkA1hSZwayiJo-247" vertex="1">
          <mxGeometry x="-10.5" y="270" width="201" height="30" as="geometry"/>
        </mxCell>
        <mxCell id="OM_o0Kiukijb_UL5lkhj-7" value="" style="edgeStyle=entityRelationEdgeStyle;startArrow=none;endArrow=none;segment=10;curved=1;" parent="c9RxhLVqkA1hSZwayiJo-247" target="OM_o0Kiukijb_UL5lkhj-6" edge="1">
          <mxGeometry relative="1" as="geometry">
            <mxPoint x="-60.5" y="330" as="sourcePoint"/>
          </mxGeometry>
        </mxCell>
        <mxCell id="c9RxhLVqkA1hSZwayiJo-291" value="&lt;pre style=&quot;font-family: &amp;#34;droid sans mono&amp;#34; ; font-size: 10px&quot;&gt;&lt;pre style=&quot;font-family: &amp;#34;droid sans mono&amp;#34; ; font-size: 10px&quot;&gt;&lt;pre style=&quot;font-family: &amp;#34;droid sans mono&amp;#34; ; font-size: 10px&quot;&gt;&lt;pre style=&quot;font-family: &amp;#34;droid sans mono&amp;#34; ; font-size: 10px&quot;&gt;DocumentLoader&lt;/pre&gt;&lt;/pre&gt;&lt;/pre&gt;&lt;/pre&gt;" style="shape=umlLifeline;perimeter=lifelinePerimeter;whiteSpace=wrap;html=1;container=1;collapsible=0;recursiveResize=0;outlineConnect=0;fontStyle=0;labelBackgroundColor=none;fontSize=10;fontColor=#000000;verticalAlign=bottom;" parent="1" vertex="1">
          <mxGeometry x="-5639.5" y="960" width="150" height="600" as="geometry"/>
        </mxCell>
        <mxCell id="c9RxhLVqkA1hSZwayiJo-292" value="" style="html=1;points=[];perimeter=orthogonalPerimeter;labelBackgroundColor=none;fillColor=#ffffff;fontSize=10;fontColor=#000000;align=left;" parent="c9RxhLVqkA1hSZwayiJo-291" vertex="1">
          <mxGeometry x="70" y="460" width="10" height="90" as="geometry"/>
        </mxCell>
        <mxCell id="c9RxhLVqkA1hSZwayiJo-327" style="edgeStyle=none;rounded=0;orthogonalLoop=1;jettySize=auto;html=1;labelBackgroundColor=none;fontSize=10;fontColor=#000000;" parent="c9RxhLVqkA1hSZwayiJo-291" source="c9RxhLVqkA1hSZwayiJo-292" target="c9RxhLVqkA1hSZwayiJo-292" edge="1">
          <mxGeometry relative="1" as="geometry">
            <Array as="points">
              <mxPoint x="109.5" y="480"/>
              <mxPoint x="109.5" y="530"/>
            </Array>
          </mxGeometry>
        </mxCell>
        <mxCell id="c9RxhLVqkA1hSZwayiJo-328" value="loadDocument(inputSource,entityResolver,errorHandler,int,boolean)" style="text;html=1;resizable=0;points=[];align=center;verticalAlign=middle;labelBackgroundColor=#ffffff;fontSize=10;fontColor=#000000;" parent="c9RxhLVqkA1hSZwayiJo-327" vertex="1" connectable="0">
          <mxGeometry x="-0.4771" y="-13" relative="1" as="geometry">
            <mxPoint x="1.5" y="12" as="offset"/>
          </mxGeometry>
        </mxCell>
        <mxCell id="c9RxhLVqkA1hSZwayiJo-298" style="edgeStyle=none;rounded=0;orthogonalLoop=1;jettySize=auto;html=1;labelBackgroundColor=none;fontSize=10;fontColor=#000000;" parent="1" source="c9RxhLVqkA1hSZwayiJo-211" target="c9RxhLVqkA1hSZwayiJo-296" edge="1">
          <mxGeometry relative="1" as="geometry">
            <Array as="points">
              <mxPoint x="-6190" y="1240"/>
              <mxPoint x="-6190" y="1270"/>
            </Array>
          </mxGeometry>
        </mxCell>
        <mxCell id="c9RxhLVqkA1hSZwayiJo-300" value="doLoadBeanDefinitions(inputResource,er.getResource)" style="text;html=1;resizable=0;points=[];align=center;verticalAlign=middle;labelBackgroundColor=#ffffff;fontSize=10;fontColor=#000000;" parent="c9RxhLVqkA1hSZwayiJo-298" vertex="1" connectable="0">
          <mxGeometry x="-0.188" y="-9" relative="1" as="geometry">
            <mxPoint x="128" y="17" as="offset"/>
          </mxGeometry>
        </mxCell>
        <mxCell id="c9RxhLVqkA1hSZwayiJo-333" style="edgeStyle=none;rounded=0;orthogonalLoop=1;jettySize=auto;html=1;labelBackgroundColor=none;fontSize=10;fontColor=#000000;" parent="1" source="c9RxhLVqkA1hSZwayiJo-211" edge="1">
          <mxGeometry relative="1" as="geometry">
            <mxPoint x="-6360" y="1590" as="targetPoint"/>
          </mxGeometry>
        </mxCell>
        <mxCell id="c9RxhLVqkA1hSZwayiJo-334" value="int" style="text;html=1;resizable=0;points=[];align=center;verticalAlign=middle;labelBackgroundColor=#ffffff;fontSize=10;fontColor=#000000;" parent="c9RxhLVqkA1hSZwayiJo-333" vertex="1" connectable="0">
          <mxGeometry x="-0.2264" relative="1" as="geometry">
            <mxPoint as="offset"/>
          </mxGeometry>
        </mxCell>
        <mxCell id="c9RxhLVqkA1hSZwayiJo-211" value="" style="html=1;points=[];perimeter=orthogonalPerimeter;labelBackgroundColor=none;fillColor=#ffffff;fontSize=10;fontColor=#000000;align=left;" parent="1" vertex="1">
          <mxGeometry x="-6254" y="1210" width="10" height="380" as="geometry"/>
        </mxCell>
        <mxCell id="c9RxhLVqkA1hSZwayiJo-234" style="edgeStyle=none;rounded=0;orthogonalLoop=1;jettySize=auto;html=1;labelBackgroundColor=none;fontSize=10;fontColor=#000000;" parent="1" source="c9RxhLVqkA1hSZwayiJo-223" target="c9RxhLVqkA1hSZwayiJo-208" edge="1">
          <mxGeometry relative="1" as="geometry">
            <mxPoint x="-6210" y="1110" as="targetPoint"/>
            <Array as="points">
              <mxPoint x="-6140" y="1130"/>
            </Array>
          </mxGeometry>
        </mxCell>
        <mxCell id="c9RxhLVqkA1hSZwayiJo-235" value="er:EncodeResource" style="text;html=1;resizable=0;points=[];align=center;verticalAlign=middle;labelBackgroundColor=#ffffff;fontSize=10;fontColor=#000000;" parent="c9RxhLVqkA1hSZwayiJo-234" vertex="1" connectable="0">
          <mxGeometry x="-0.2414" relative="1" as="geometry">
            <mxPoint x="-16.5" as="offset"/>
          </mxGeometry>
        </mxCell>
        <mxCell id="c9RxhLVqkA1hSZwayiJo-237" style="edgeStyle=none;rounded=0;orthogonalLoop=1;jettySize=auto;html=1;labelBackgroundColor=none;fontSize=10;fontColor=#000000;" parent="1" source="c9RxhLVqkA1hSZwayiJo-208" edge="1">
          <mxGeometry relative="1" as="geometry">
            <mxPoint x="-6241" y="1223" as="targetPoint"/>
            <Array as="points">
              <mxPoint x="-6219" y="1160"/>
              <mxPoint x="-6219" y="1223"/>
            </Array>
          </mxGeometry>
        </mxCell>
        <mxCell id="c9RxhLVqkA1hSZwayiJo-263" value="loadBeanDefinitions(er)" style="text;html=1;resizable=0;points=[];align=center;verticalAlign=middle;labelBackgroundColor=#ffffff;fontSize=10;fontColor=#000000;" parent="c9RxhLVqkA1hSZwayiJo-237" vertex="1" connectable="0">
          <mxGeometry x="0.1615" y="1" relative="1" as="geometry">
            <mxPoint x="38.5" y="-3.5" as="offset"/>
          </mxGeometry>
        </mxCell>
        <mxCell id="c9RxhLVqkA1hSZwayiJo-268" style="edgeStyle=none;rounded=0;orthogonalLoop=1;jettySize=auto;html=1;labelBackgroundColor=none;fontSize=10;fontColor=#000000;" parent="1" edge="1">
          <mxGeometry relative="1" as="geometry">
            <mxPoint x="-5800" y="1062" as="targetPoint"/>
            <mxPoint x="-6019.5" y="1062" as="sourcePoint"/>
          </mxGeometry>
        </mxCell>
        <mxCell id="c9RxhLVqkA1hSZwayiJo-270" value="super()" style="text;html=1;resizable=0;points=[];align=center;verticalAlign=middle;labelBackgroundColor=#ffffff;fontSize=10;fontColor=#000000;" parent="c9RxhLVqkA1hSZwayiJo-268" vertex="1" connectable="0">
          <mxGeometry x="0.2285" relative="1" as="geometry">
            <mxPoint as="offset"/>
          </mxGeometry>
        </mxCell>
        <mxCell id="c9RxhLVqkA1hSZwayiJo-269" style="edgeStyle=none;rounded=0;orthogonalLoop=1;jettySize=auto;html=1;entryX=0.95;entryY=0.5;entryDx=0;entryDy=0;entryPerimeter=0;labelBackgroundColor=none;fontSize=10;fontColor=#000000;" parent="1" edge="1">
          <mxGeometry relative="1" as="geometry">
            <mxPoint x="-5799.5" y="1077" as="sourcePoint"/>
            <mxPoint x="-6020" y="1077" as="targetPoint"/>
          </mxGeometry>
        </mxCell>
        <mxCell id="c9RxhLVqkA1hSZwayiJo-271" value=":void" style="text;html=1;resizable=0;points=[];align=center;verticalAlign=middle;labelBackgroundColor=#ffffff;fontSize=10;fontColor=#000000;" parent="c9RxhLVqkA1hSZwayiJo-269" vertex="1" connectable="0">
          <mxGeometry x="-0.1897" y="-2" relative="1" as="geometry">
            <mxPoint as="offset"/>
          </mxGeometry>
        </mxCell>
        <mxCell id="c9RxhLVqkA1hSZwayiJo-287" value="resourcesCurrentlyBeingLoaded：&lt;br&gt;这是一个资源set,判断资源是否被加载和是否重复加载：&lt;br&gt;但是被一个ThreadLocal 封装了起来，&amp;nbsp;&lt;br&gt;这里使用的localThread会为每个线程创建一个Set&amp;lt;EncodedResource&amp;gt;副本，保证线程之间的数据访问不会出现冲突&lt;br&gt;&lt;br&gt;inputSource 来源于er,也带有encoding属性" style="text;html=1;fontSize=10;fontColor=#000000;fillColor=none;whiteSpace=wrap;" parent="1" vertex="1">
          <mxGeometry x="-6520" y="1130" width="250" height="135" as="geometry"/>
        </mxCell>
        <mxCell id="c9RxhLVqkA1hSZwayiJo-301" style="edgeStyle=none;rounded=0;orthogonalLoop=1;jettySize=auto;html=1;labelBackgroundColor=none;fontSize=10;fontColor=#000000;" parent="1" source="c9RxhLVqkA1hSZwayiJo-306" target="c9RxhLVqkA1hSZwayiJo-292" edge="1">
          <mxGeometry relative="1" as="geometry">
            <mxPoint x="-6020" y="1335" as="sourcePoint"/>
            <Array as="points">
              <mxPoint x="-6130" y="1425"/>
            </Array>
          </mxGeometry>
        </mxCell>
        <mxCell id="c9RxhLVqkA1hSZwayiJo-302" value="new DefaultDocumentLoader()" style="text;html=1;resizable=0;points=[];align=center;verticalAlign=middle;labelBackgroundColor=#ffffff;fontSize=10;fontColor=#000000;" parent="c9RxhLVqkA1hSZwayiJo-301" vertex="1" connectable="0">
          <mxGeometry x="0.1113" relative="1" as="geometry">
            <mxPoint as="offset"/>
          </mxGeometry>
        </mxCell>
        <mxCell id="c9RxhLVqkA1hSZwayiJo-307" style="edgeStyle=none;rounded=0;orthogonalLoop=1;jettySize=auto;html=1;labelBackgroundColor=none;fontSize=10;fontColor=#000000;" parent="1" source="c9RxhLVqkA1hSZwayiJo-296" target="c9RxhLVqkA1hSZwayiJo-306" edge="1">
          <mxGeometry relative="1" as="geometry">
            <Array as="points">
              <mxPoint x="-6190" y="1280"/>
              <mxPoint x="-6190" y="1310"/>
            </Array>
          </mxGeometry>
        </mxCell>
        <mxCell id="c9RxhLVqkA1hSZwayiJo-308" value="doLoadDocument(inputResource,er.getResource):：doc" style="text;html=1;resizable=0;points=[];align=center;verticalAlign=middle;labelBackgroundColor=#ffffff;fontSize=10;fontColor=#000000;" parent="c9RxhLVqkA1hSZwayiJo-307" vertex="1" connectable="0">
          <mxGeometry x="-0.2033" y="-7" relative="1" as="geometry">
            <mxPoint x="115" y="11" as="offset"/>
          </mxGeometry>
        </mxCell>
        <mxCell id="c9RxhLVqkA1hSZwayiJo-296" value="" style="html=1;points=[];perimeter=orthogonalPerimeter;labelBackgroundColor=none;fillColor=#ffffff;fontSize=10;fontColor=#000000;align=left;" parent="1" vertex="1">
          <mxGeometry x="-6249" y="1255" width="10" height="325" as="geometry"/>
        </mxCell>
        <mxCell id="c9RxhLVqkA1hSZwayiJo-306" value="" style="html=1;points=[];perimeter=orthogonalPerimeter;labelBackgroundColor=none;fillColor=#ffffff;fontSize=10;fontColor=#000000;align=left;" parent="1" vertex="1">
          <mxGeometry x="-6244" y="1295" width="10" height="215" as="geometry"/>
        </mxCell>
        <mxCell id="c9RxhLVqkA1hSZwayiJo-314" style="edgeStyle=none;rounded=0;orthogonalLoop=1;jettySize=auto;html=1;labelBackgroundColor=none;fontSize=10;fontColor=#000000;" parent="1" source="c9RxhLVqkA1hSZwayiJo-306" target="c9RxhLVqkA1hSZwayiJo-306" edge="1">
          <mxGeometry relative="1" as="geometry">
            <Array as="points">
              <mxPoint x="-6214" y="1320"/>
              <mxPoint x="-6214" y="1350"/>
            </Array>
          </mxGeometry>
        </mxCell>
        <mxCell id="c9RxhLVqkA1hSZwayiJo-315" value="getEntityResolver():EntityResolver" style="text;html=1;resizable=0;points=[];align=center;verticalAlign=middle;labelBackgroundColor=#ffffff;fontSize=10;fontColor=#000000;" parent="c9RxhLVqkA1hSZwayiJo-314" vertex="1" connectable="0">
          <mxGeometry x="-0.5" y="-9" relative="1" as="geometry">
            <mxPoint x="76" y="1" as="offset"/>
          </mxGeometry>
        </mxCell>
        <mxCell id="c9RxhLVqkA1hSZwayiJo-316" style="edgeStyle=none;rounded=0;orthogonalLoop=1;jettySize=auto;html=1;labelBackgroundColor=none;fontSize=10;fontColor=#000000;" parent="1" source="c9RxhLVqkA1hSZwayiJo-306" target="c9RxhLVqkA1hSZwayiJo-306" edge="1">
          <mxGeometry relative="1" as="geometry">
            <Array as="points">
              <mxPoint x="-6210" y="1360"/>
              <mxPoint x="-6210" y="1380"/>
            </Array>
          </mxGeometry>
        </mxCell>
        <mxCell id="c9RxhLVqkA1hSZwayiJo-319" value="getValidationModeForResource(resource):int" style="text;html=1;resizable=0;points=[];align=center;verticalAlign=middle;labelBackgroundColor=#ffffff;fontSize=10;fontColor=#000000;" parent="c9RxhLVqkA1hSZwayiJo-316" vertex="1" connectable="0">
          <mxGeometry x="-0.2941" y="-6" relative="1" as="geometry">
            <mxPoint x="106.5" y="10" as="offset"/>
          </mxGeometry>
        </mxCell>
        <mxCell id="c9RxhLVqkA1hSZwayiJo-317" style="edgeStyle=none;rounded=0;orthogonalLoop=1;jettySize=auto;html=1;labelBackgroundColor=none;fontSize=10;fontColor=#000000;" parent="1" source="c9RxhLVqkA1hSZwayiJo-306" target="c9RxhLVqkA1hSZwayiJo-306" edge="1">
          <mxGeometry relative="1" as="geometry">
            <Array as="points">
              <mxPoint x="-6210" y="1390"/>
              <mxPoint x="-6210" y="1420"/>
            </Array>
          </mxGeometry>
        </mxCell>
        <mxCell id="c9RxhLVqkA1hSZwayiJo-321" value="isNamespaceAware():boolean" style="text;html=1;resizable=0;points=[];align=center;verticalAlign=middle;labelBackgroundColor=#ffffff;fontSize=10;fontColor=#000000;" parent="c9RxhLVqkA1hSZwayiJo-317" vertex="1" connectable="0">
          <mxGeometry x="-0.3846" y="-7" relative="1" as="geometry">
            <mxPoint x="67" y="10" as="offset"/>
          </mxGeometry>
        </mxCell>
        <mxCell id="c9RxhLVqkA1hSZwayiJo-329" style="edgeStyle=none;rounded=0;orthogonalLoop=1;jettySize=auto;html=1;labelBackgroundColor=none;fontSize=10;fontColor=#000000;" parent="1" source="c9RxhLVqkA1hSZwayiJo-292" target="c9RxhLVqkA1hSZwayiJo-306" edge="1">
          <mxGeometry relative="1" as="geometry">
            <Array as="points">
              <mxPoint x="-5910" y="1500"/>
            </Array>
          </mxGeometry>
        </mxCell>
        <mxCell id="c9RxhLVqkA1hSZwayiJo-330" value="doc:Document" style="text;html=1;resizable=0;points=[];align=center;verticalAlign=middle;labelBackgroundColor=#ffffff;fontSize=10;fontColor=#000000;" parent="c9RxhLVqkA1hSZwayiJo-329" vertex="1" connectable="0">
          <mxGeometry x="0.0248" y="32" relative="1" as="geometry">
            <mxPoint x="32" y="-31" as="offset"/>
          </mxGeometry>
        </mxCell>
        <mxCell id="c9RxhLVqkA1hSZwayiJo-331" style="edgeStyle=none;rounded=0;orthogonalLoop=1;jettySize=auto;html=1;labelBackgroundColor=none;fontSize=10;fontColor=#000000;" parent="1" source="c9RxhLVqkA1hSZwayiJo-296" target="c9RxhLVqkA1hSZwayiJo-296" edge="1">
          <mxGeometry relative="1" as="geometry">
            <Array as="points">
              <mxPoint x="-6200" y="1530"/>
              <mxPoint x="-6200" y="1550"/>
            </Array>
          </mxGeometry>
        </mxCell>
        <mxCell id="c9RxhLVqkA1hSZwayiJo-332" value="registerBeanDefinitions(doc, resource);" style="text;html=1;resizable=0;points=[];align=center;verticalAlign=middle;labelBackgroundColor=#ffffff;fontSize=10;fontColor=#000000;" parent="c9RxhLVqkA1hSZwayiJo-331" vertex="1" connectable="0">
          <mxGeometry x="0.1691" relative="1" as="geometry">
            <mxPoint x="80" y="-9" as="offset"/>
          </mxGeometry>
        </mxCell>
        <mxCell id="OM_o0Kiukijb_UL5lkhj-4" value="从指定的XML文件加载bean定义&lt;br&gt;inputResource:从这个里面读取SAX&lt;br&gt;er:XML文件的资源描述符" style="whiteSpace=wrap;html=1;rounded=1;arcSize=50;align=center;verticalAlign=middle;container=1;recursiveResize=0;strokeWidth=1;autosize=1;spacing=4;treeFolding=1;treeMoving=1;" parent="1" vertex="1">
          <mxGeometry x="-5981.5" y="1152.5" width="230" height="60" as="geometry"/>
        </mxCell>
        <mxCell id="OM_o0Kiukijb_UL5lkhj-5" value="" style="edgeStyle=entityRelationEdgeStyle;startArrow=none;endArrow=none;segment=10;curved=1;" parent="1" target="OM_o0Kiukijb_UL5lkhj-4" edge="1">
          <mxGeometry relative="1" as="geometry">
            <mxPoint x="-6000" y="1250" as="sourcePoint"/>
          </mxGeometry>
        </mxCell>
        <mxCell id="OM_o0Kiukijb_UL5lkhj-8" value="生成默认的解析器" style="whiteSpace=wrap;html=1;rounded=1;arcSize=50;align=center;verticalAlign=middle;container=1;recursiveResize=0;strokeWidth=1;autosize=1;spacing=4;treeFolding=1;treeMoving=1;" parent="1" vertex="1">
          <mxGeometry x="-5980" y="1310" width="121" height="30" as="geometry"/>
        </mxCell>
        <mxCell id="OM_o0Kiukijb_UL5lkhj-9" value="" style="edgeStyle=entityRelationEdgeStyle;startArrow=none;endArrow=none;segment=10;curved=1;" parent="1" target="OM_o0Kiukijb_UL5lkhj-8" edge="1">
          <mxGeometry relative="1" as="geometry">
            <mxPoint x="-6040" y="1335" as="sourcePoint"/>
          </mxGeometry>
        </mxCell>
        <mxCell id="OM_o0Kiukijb_UL5lkhj-10" value="获取对XML文件的验证模式" style="whiteSpace=wrap;html=1;rounded=1;arcSize=50;align=center;verticalAlign=middle;container=1;recursiveResize=0;strokeWidth=1;autosize=1;spacing=4;treeFolding=1;treeMoving=1;" parent="1" vertex="1">
          <mxGeometry x="-5950" y="1358" width="171" height="30" as="geometry"/>
        </mxCell>
        <mxCell id="OM_o0Kiukijb_UL5lkhj-11" value="" style="edgeStyle=entityRelationEdgeStyle;startArrow=none;endArrow=none;segment=10;curved=1;" parent="1" target="OM_o0Kiukijb_UL5lkhj-10" edge="1">
          <mxGeometry relative="1" as="geometry">
            <mxPoint x="-5990" y="1373" as="sourcePoint"/>
          </mxGeometry>
        </mxCell>
        <mxCell id="OM_o0Kiukijb_UL5lkhj-23" value="XML解析器应支持XML名称空间" style="text;html=1;" parent="1" vertex="1">
          <mxGeometry x="-6059.5" y="1390" width="190" height="30" as="geometry"/>
        </mxCell>
        <mxCell id="8j1zaXw2eFbN5oOfc8Po-1" value="&lt;pre style=&quot;font-family: &amp;#34;droid sans mono&amp;#34; ; font-size: 10px&quot;&gt;&lt;pre style=&quot;font-family: &amp;#34;droid sans mono&amp;#34; ; font-size: 10px&quot;&gt;&lt;pre style=&quot;font-family: &amp;#34;droid sans mono&amp;#34; ; font-size: 10px&quot;&gt;&lt;pre style=&quot;font-family: &amp;#34;droid sans mono&amp;#34; ; font-size: 10px&quot;&gt;XmlBeanDefinitionReader&lt;/pre&gt;&lt;/pre&gt;&lt;/pre&gt;&lt;/pre&gt;" style="shape=umlLifeline;perimeter=lifelinePerimeter;whiteSpace=wrap;html=1;container=1;collapsible=0;recursiveResize=0;outlineConnect=0;fontStyle=0;labelBackgroundColor=none;fontSize=10;fontColor=#000000;verticalAlign=bottom;" parent="1" vertex="1">
          <mxGeometry x="-6329" y="1620" width="150" height="640" as="geometry"/>
        </mxCell>
        <mxCell id="8j1zaXw2eFbN5oOfc8Po-10" style="edgeStyle=orthogonalEdgeStyle;rounded=0;orthogonalLoop=1;jettySize=auto;html=1;" parent="8j1zaXw2eFbN5oOfc8Po-1" source="8j1zaXw2eFbN5oOfc8Po-2" target="8j1zaXw2eFbN5oOfc8Po-5" edge="1">
          <mxGeometry relative="1" as="geometry">
            <Array as="points">
              <mxPoint x="119" y="80"/>
              <mxPoint x="119" y="110"/>
            </Array>
          </mxGeometry>
        </mxCell>
        <mxCell id="8j1zaXw2eFbN5oOfc8Po-11" value="genEntityresolver():EntityResolver" style="text;html=1;resizable=0;points=[];align=center;verticalAlign=middle;labelBackgroundColor=#ffffff;" parent="8j1zaXw2eFbN5oOfc8Po-10" vertex="1" connectable="0">
          <mxGeometry x="-0.2427" y="-5" relative="1" as="geometry">
            <mxPoint x="75" y="10" as="offset"/>
          </mxGeometry>
        </mxCell>
        <mxCell id="8j1zaXw2eFbN5oOfc8Po-2" value="" style="html=1;points=[];perimeter=orthogonalPerimeter;labelBackgroundColor=none;fillColor=#ffffff;fontSize=10;fontColor=#000000;align=left;" parent="8j1zaXw2eFbN5oOfc8Po-1" vertex="1">
          <mxGeometry x="70" y="60" width="10" height="580" as="geometry"/>
        </mxCell>
        <mxCell id="8j1zaXw2eFbN5oOfc8Po-5" value="" style="html=1;points=[];perimeter=orthogonalPerimeter;labelBackgroundColor=none;fillColor=#ffffff;fontSize=10;fontColor=#000000;align=left;" parent="8j1zaXw2eFbN5oOfc8Po-1" vertex="1">
          <mxGeometry x="75" y="100" width="10" height="160" as="geometry"/>
        </mxCell>
        <mxCell id="8j1zaXw2eFbN5oOfc8Po-24" style="edgeStyle=orthogonalEdgeStyle;rounded=0;orthogonalLoop=1;jettySize=auto;html=1;" parent="8j1zaXw2eFbN5oOfc8Po-1" source="8j1zaXw2eFbN5oOfc8Po-5" target="8j1zaXw2eFbN5oOfc8Po-5" edge="1">
          <mxGeometry relative="1" as="geometry">
            <Array as="points">
              <mxPoint x="105" y="120"/>
              <mxPoint x="105" y="150"/>
            </Array>
          </mxGeometry>
        </mxCell>
        <mxCell id="8j1zaXw2eFbN5oOfc8Po-25" value="getBeanClassLoader()得到beanClassLoader" style="text;html=1;resizable=0;points=[];align=center;verticalAlign=middle;labelBackgroundColor=#ffffff;" parent="8j1zaXw2eFbN5oOfc8Po-24" vertex="1" connectable="0">
          <mxGeometry x="-0.427" y="-7" relative="1" as="geometry">
            <mxPoint x="111" y="10" as="offset"/>
          </mxGeometry>
        </mxCell>
        <mxCell id="8j1zaXw2eFbN5oOfc8Po-56" value="&lt;pre style=&quot;font-family: &amp;#34;droid sans mono&amp;#34; ; font-size: 10px&quot;&gt;&lt;pre style=&quot;font-family: &amp;#34;droid sans mono&amp;#34; ; font-size: 10px&quot;&gt;&lt;pre style=&quot;font-family: &amp;#34;droid sans mono&amp;#34; ; font-size: 10px&quot;&gt;&lt;pre style=&quot;font-family: &amp;#34;droid sans mono&amp;#34; ; font-size: 10px&quot;&gt;XmlValidationModeDetector&lt;/pre&gt;&lt;/pre&gt;&lt;/pre&gt;&lt;/pre&gt;" style="shape=umlLifeline;perimeter=lifelinePerimeter;whiteSpace=wrap;html=1;container=1;collapsible=0;recursiveResize=0;outlineConnect=0;fontStyle=0;labelBackgroundColor=none;fontSize=10;fontColor=#000000;verticalAlign=bottom;" parent="1" vertex="1">
          <mxGeometry x="-6099" y="2010" width="150" height="230" as="geometry"/>
        </mxCell>
        <mxCell id="8j1zaXw2eFbN5oOfc8Po-59" value="" style="html=1;points=[];perimeter=orthogonalPerimeter;labelBackgroundColor=none;fillColor=#ffffff;fontSize=10;fontColor=#000000;align=left;" parent="8j1zaXw2eFbN5oOfc8Po-56" vertex="1">
          <mxGeometry x="70" y="50" width="10" height="50" as="geometry"/>
        </mxCell>
        <mxCell id="8j1zaXw2eFbN5oOfc8Po-64" style="edgeStyle=orthogonalEdgeStyle;rounded=0;orthogonalLoop=1;jettySize=auto;html=1;" parent="8j1zaXw2eFbN5oOfc8Po-56" source="8j1zaXw2eFbN5oOfc8Po-59" target="8j1zaXw2eFbN5oOfc8Po-59" edge="1">
          <mxGeometry relative="1" as="geometry">
            <Array as="points">
              <mxPoint x="99" y="60"/>
              <mxPoint x="99" y="90"/>
            </Array>
          </mxGeometry>
        </mxCell>
        <mxCell id="8j1zaXw2eFbN5oOfc8Po-65" value="detectValidationMode(InputStream)" style="text;html=1;resizable=0;points=[];align=center;verticalAlign=middle;labelBackgroundColor=#ffffff;" parent="8j1zaXw2eFbN5oOfc8Po-64" vertex="1" connectable="0">
          <mxGeometry x="-0.4369" y="-2" relative="1" as="geometry">
            <mxPoint x="37" y="10" as="offset"/>
          </mxGeometry>
        </mxCell>
        <mxCell id="8j1zaXw2eFbN5oOfc8Po-14" value="&lt;pre style=&quot;font-family: &amp;#34;droid sans mono&amp;#34; ; font-size: 10px&quot;&gt;&lt;pre style=&quot;font-family: &amp;#34;droid sans mono&amp;#34; ; font-size: 10px&quot;&gt;&lt;pre style=&quot;font-family: &amp;#34;droid sans mono&amp;#34; ; font-size: 10px&quot;&gt;&lt;pre style=&quot;font-family: &amp;#34;droid sans mono&amp;#34; ; font-size: 10px&quot;&gt;&lt;span style=&quot;font-family: &amp;#34;helvetica&amp;#34; ; font-size: 12px ; white-space: nowrap ; background-color: rgb(255 , 255 , 255)&quot;&gt;DelegatingEntityResolver&lt;/span&gt;&lt;br&gt;&lt;/pre&gt;&lt;/pre&gt;&lt;/pre&gt;&lt;/pre&gt;" style="shape=umlLifeline;perimeter=lifelinePerimeter;whiteSpace=wrap;html=1;container=1;collapsible=0;recursiveResize=0;outlineConnect=0;fontStyle=0;labelBackgroundColor=none;fontSize=10;fontColor=#000000;verticalAlign=bottom;" parent="1" vertex="1">
          <mxGeometry x="-6099" y="1620" width="150" height="280" as="geometry"/>
        </mxCell>
        <mxCell id="8j1zaXw2eFbN5oOfc8Po-17" value="" style="html=1;points=[];perimeter=orthogonalPerimeter;labelBackgroundColor=none;fillColor=#ffffff;fontSize=10;fontColor=#000000;align=left;" parent="8j1zaXw2eFbN5oOfc8Po-14" vertex="1">
          <mxGeometry x="70" y="160" width="10" height="90" as="geometry"/>
        </mxCell>
        <mxCell id="8j1zaXw2eFbN5oOfc8Po-32" value="&lt;pre&gt;&lt;pre&gt;&lt;pre&gt;&lt;pre&gt;&lt;font face=&quot;helvetica&quot;&gt;&lt;span style=&quot;white-space: nowrap&quot;&gt;PluggableSchemaResolver&lt;/span&gt;&lt;/font&gt;&lt;font face=&quot;droid sans mono&quot;&gt;&lt;span style=&quot;font-size: 10px&quot;&gt;&lt;br&gt;&lt;/span&gt;&lt;/font&gt;&lt;/pre&gt;&lt;/pre&gt;&lt;/pre&gt;&lt;/pre&gt;" style="shape=umlLifeline;perimeter=lifelinePerimeter;whiteSpace=wrap;html=1;container=1;collapsible=0;recursiveResize=0;outlineConnect=0;fontStyle=0;labelBackgroundColor=none;fontSize=10;fontColor=#000000;verticalAlign=bottom;" parent="1" vertex="1">
          <mxGeometry x="-5869" y="1620" width="150" height="230" as="geometry"/>
        </mxCell>
        <mxCell id="8j1zaXw2eFbN5oOfc8Po-33" value="" style="html=1;points=[];perimeter=orthogonalPerimeter;labelBackgroundColor=none;fillColor=#ffffff;fontSize=10;fontColor=#000000;align=left;" parent="8j1zaXw2eFbN5oOfc8Po-32" vertex="1">
          <mxGeometry x="69.5" y="175" width="10" height="40" as="geometry"/>
        </mxCell>
        <mxCell id="8j1zaXw2eFbN5oOfc8Po-26" style="edgeStyle=orthogonalEdgeStyle;rounded=0;orthogonalLoop=1;jettySize=auto;html=1;" parent="1" source="8j1zaXw2eFbN5oOfc8Po-5" target="8j1zaXw2eFbN5oOfc8Po-17" edge="1">
          <mxGeometry relative="1" as="geometry">
            <Array as="points">
              <mxPoint x="-6120" y="1790"/>
              <mxPoint x="-6120" y="1790"/>
            </Array>
          </mxGeometry>
        </mxCell>
        <mxCell id="8j1zaXw2eFbN5oOfc8Po-27" value="new DelegatingEntityResolver()" style="text;html=1;resizable=0;points=[];align=center;verticalAlign=middle;labelBackgroundColor=#ffffff;" parent="8j1zaXw2eFbN5oOfc8Po-26" vertex="1" connectable="0">
          <mxGeometry x="0.1602" y="1" relative="1" as="geometry">
            <mxPoint x="-21" y="1.5" as="offset"/>
          </mxGeometry>
        </mxCell>
        <mxCell id="8j1zaXw2eFbN5oOfc8Po-31" value="DTD_SUFFIX:string&lt;br&gt;XSD_SUFFIX:string&lt;br&gt;dtdResolver:EntityResolver&lt;br&gt;schemaResolver:EntityResolver" style="text;html=1;strokeColor=none;fillColor=none;align=left;verticalAlign=middle;whiteSpace=wrap;rounded=0;" parent="1" vertex="1">
          <mxGeometry x="-6010" y="1670" width="169" height="50" as="geometry"/>
        </mxCell>
        <mxCell id="8j1zaXw2eFbN5oOfc8Po-35" style="edgeStyle=orthogonalEdgeStyle;rounded=0;orthogonalLoop=1;jettySize=auto;html=1;" parent="1" source="8j1zaXw2eFbN5oOfc8Po-17" target="8j1zaXw2eFbN5oOfc8Po-33" edge="1">
          <mxGeometry relative="1" as="geometry">
            <Array as="points">
              <mxPoint x="-5880" y="1800"/>
              <mxPoint x="-5880" y="1800"/>
            </Array>
          </mxGeometry>
        </mxCell>
        <mxCell id="8j1zaXw2eFbN5oOfc8Po-36" value="&lt;span style=&quot;text-align: left ; white-space: normal ; background-color: rgb(248 , 249 , 250)&quot;&gt;dtdResolver:&lt;/span&gt;new BeansDtdResolver()" style="text;html=1;resizable=0;points=[];align=center;verticalAlign=middle;labelBackgroundColor=#ffffff;" parent="8j1zaXw2eFbN5oOfc8Po-35" vertex="1" connectable="0">
          <mxGeometry x="0.2667" y="-14" relative="1" as="geometry">
            <mxPoint x="-30" y="-14.5" as="offset"/>
          </mxGeometry>
        </mxCell>
        <mxCell id="8j1zaXw2eFbN5oOfc8Po-37" value="&lt;pre style=&quot;font-family: &amp;#34;droid sans mono&amp;#34; ; font-size: 10px&quot;&gt;&lt;pre style=&quot;font-family: &amp;#34;droid sans mono&amp;#34; ; font-size: 10px&quot;&gt;&lt;pre style=&quot;font-family: &amp;#34;droid sans mono&amp;#34; ; font-size: 10px&quot;&gt;&lt;pre style=&quot;font-family: &amp;#34;droid sans mono&amp;#34; ; font-size: 10px&quot;&gt;&lt;span style=&quot;font-family: &amp;#34;helvetica&amp;#34; ; font-size: 12px ; white-space: nowrap ; background-color: rgb(255 , 255 , 255)&quot;&gt;DelegatingEntityResolver&lt;/span&gt;&lt;br&gt;&lt;/pre&gt;&lt;/pre&gt;&lt;/pre&gt;&lt;/pre&gt;" style="shape=umlLifeline;perimeter=lifelinePerimeter;whiteSpace=wrap;html=1;container=1;collapsible=0;recursiveResize=0;outlineConnect=0;fontStyle=0;labelBackgroundColor=none;fontSize=10;fontColor=#000000;verticalAlign=bottom;" parent="1" vertex="1">
          <mxGeometry x="-5869" y="1850" width="150" height="120" as="geometry"/>
        </mxCell>
        <mxCell id="8j1zaXw2eFbN5oOfc8Po-38" value="" style="html=1;points=[];perimeter=orthogonalPerimeter;labelBackgroundColor=none;fillColor=#ffffff;fontSize=10;fontColor=#000000;align=left;" parent="8j1zaXw2eFbN5oOfc8Po-37" vertex="1">
          <mxGeometry x="70" y="50" width="10" height="40" as="geometry"/>
        </mxCell>
        <mxCell id="8j1zaXw2eFbN5oOfc8Po-39" style="edgeStyle=orthogonalEdgeStyle;rounded=0;orthogonalLoop=1;jettySize=auto;html=1;" parent="1" source="8j1zaXw2eFbN5oOfc8Po-17" target="8j1zaXw2eFbN5oOfc8Po-38" edge="1">
          <mxGeometry relative="1" as="geometry">
            <Array as="points">
              <mxPoint x="-5909" y="1850"/>
              <mxPoint x="-5909" y="1910"/>
            </Array>
          </mxGeometry>
        </mxCell>
        <mxCell id="8j1zaXw2eFbN5oOfc8Po-41" value="&lt;span style=&quot;text-align: left ; white-space: normal ; background-color: rgb(248 , 249 , 250)&quot;&gt;schemaResolver&lt;/span&gt;" style="text;html=1;resizable=0;points=[];align=center;verticalAlign=middle;labelBackgroundColor=#ffffff;" parent="8j1zaXw2eFbN5oOfc8Po-39" vertex="1" connectable="0">
          <mxGeometry x="-0.7607" relative="1" as="geometry">
            <mxPoint x="21" y="-0.5" as="offset"/>
          </mxGeometry>
        </mxCell>
        <mxCell id="8j1zaXw2eFbN5oOfc8Po-42" value="String DTD_EXTENSION = &quot;.dtd&quot;;&lt;br&gt;String DTD_NAME = &quot;spring-beans&quot;;" style="text;html=1;" parent="1" vertex="1">
          <mxGeometry x="-5787.5" y="1665" width="200" height="30" as="geometry"/>
        </mxCell>
        <mxCell id="8j1zaXw2eFbN5oOfc8Po-43" value="ClassLoader classLoader;&lt;br&gt;String schemaMappingsLocation;" style="text;html=1;" parent="1" vertex="1">
          <mxGeometry x="-5787" y="1899" width="188" height="30" as="geometry"/>
        </mxCell>
        <mxCell id="8j1zaXw2eFbN5oOfc8Po-44" style="edgeStyle=orthogonalEdgeStyle;rounded=0;orthogonalLoop=1;jettySize=auto;html=1;" parent="1" source="8j1zaXw2eFbN5oOfc8Po-17" target="8j1zaXw2eFbN5oOfc8Po-5" edge="1">
          <mxGeometry relative="1" as="geometry">
            <Array as="points">
              <mxPoint x="-6130" y="1860"/>
              <mxPoint x="-6130" y="1860"/>
            </Array>
          </mxGeometry>
        </mxCell>
        <mxCell id="8j1zaXw2eFbN5oOfc8Po-53" style="edgeStyle=orthogonalEdgeStyle;rounded=0;orthogonalLoop=1;jettySize=auto;html=1;" parent="1" source="8j1zaXw2eFbN5oOfc8Po-46" target="8j1zaXw2eFbN5oOfc8Po-52" edge="1">
          <mxGeometry relative="1" as="geometry">
            <Array as="points">
              <mxPoint x="-6220" y="1980"/>
              <mxPoint x="-6220" y="2020"/>
            </Array>
          </mxGeometry>
        </mxCell>
        <mxCell id="8j1zaXw2eFbN5oOfc8Po-54" value="detectValidationMode(Resource)&lt;br&gt;自动检测验证模式" style="text;html=1;resizable=0;points=[];align=center;verticalAlign=middle;labelBackgroundColor=#ffffff;" parent="8j1zaXw2eFbN5oOfc8Po-53" vertex="1" connectable="0">
          <mxGeometry x="-0.4183" y="-7" relative="1" as="geometry">
            <mxPoint x="82" y="20" as="offset"/>
          </mxGeometry>
        </mxCell>
        <mxCell id="8j1zaXw2eFbN5oOfc8Po-46" value="" style="html=1;points=[];perimeter=orthogonalPerimeter;labelBackgroundColor=none;fillColor=#ffffff;fontSize=10;fontColor=#000000;align=left;" parent="1" vertex="1">
          <mxGeometry x="-6254" y="1929" width="10" height="211" as="geometry"/>
        </mxCell>
        <mxCell id="8j1zaXw2eFbN5oOfc8Po-49" style="edgeStyle=orthogonalEdgeStyle;rounded=0;orthogonalLoop=1;jettySize=auto;html=1;" parent="1" source="8j1zaXw2eFbN5oOfc8Po-2" target="8j1zaXw2eFbN5oOfc8Po-46" edge="1">
          <mxGeometry relative="1" as="geometry">
            <Array as="points">
              <mxPoint x="-6220" y="1900"/>
              <mxPoint x="-6220" y="1940"/>
            </Array>
          </mxGeometry>
        </mxCell>
        <mxCell id="8j1zaXw2eFbN5oOfc8Po-50" value="getValidationModeForResource(resource):int" style="text;html=1;resizable=0;points=[];align=center;verticalAlign=middle;labelBackgroundColor=#ffffff;" parent="8j1zaXw2eFbN5oOfc8Po-49" vertex="1" connectable="0">
          <mxGeometry x="-0.3737" y="-12" relative="1" as="geometry">
            <mxPoint x="52" y="14" as="offset"/>
          </mxGeometry>
        </mxCell>
        <mxCell id="8j1zaXw2eFbN5oOfc8Po-51" value="getValidationMode():默认为1：自动检测" style="text;html=1;" parent="1" vertex="1">
          <mxGeometry x="-6239.5" y="1949" width="190" height="30" as="geometry"/>
        </mxCell>
        <mxCell id="8j1zaXw2eFbN5oOfc8Po-66" style="rounded=0;orthogonalLoop=1;jettySize=auto;html=1;entryX=0.017;entryY=0.123;entryDx=0;entryDy=0;entryPerimeter=0;" parent="1" source="8j1zaXw2eFbN5oOfc8Po-52" target="8j1zaXw2eFbN5oOfc8Po-59" edge="1">
          <mxGeometry relative="1" as="geometry"/>
        </mxCell>
        <mxCell id="8j1zaXw2eFbN5oOfc8Po-69" value="this.xmlVali=new XmlVal..." style="text;html=1;resizable=0;points=[];align=center;verticalAlign=middle;labelBackgroundColor=#ffffff;" parent="8j1zaXw2eFbN5oOfc8Po-66" vertex="1" connectable="0">
          <mxGeometry x="-0.1975" y="1" relative="1" as="geometry">
            <mxPoint x="10.5" as="offset"/>
          </mxGeometry>
        </mxCell>
        <mxCell id="8j1zaXw2eFbN5oOfc8Po-52" value="" style="html=1;points=[];perimeter=orthogonalPerimeter;labelBackgroundColor=none;fillColor=#ffffff;fontSize=10;fontColor=#000000;align=left;" parent="1" vertex="1">
          <mxGeometry x="-6249" y="2000" width="10" height="120" as="geometry"/>
        </mxCell>
        <mxCell id="8j1zaXw2eFbN5oOfc8Po-68" style="edgeStyle=none;rounded=0;orthogonalLoop=1;jettySize=auto;html=1;" parent="1" source="8j1zaXw2eFbN5oOfc8Po-59" target="8j1zaXw2eFbN5oOfc8Po-52" edge="1">
          <mxGeometry relative="1" as="geometry">
            <Array as="points">
              <mxPoint x="-6140" y="2110"/>
            </Array>
          </mxGeometry>
        </mxCell>
        <mxCell id="8j1zaXw2eFbN5oOfc8Po-70" value="" style="html=1;points=[];perimeter=orthogonalPerimeter;labelBackgroundColor=none;fillColor=#ffffff;fontSize=10;fontColor=#000000;align=left;" parent="1" vertex="1">
          <mxGeometry x="-6254" y="2160" width="10" height="50" as="geometry"/>
        </mxCell>
        <mxCell id="8j1zaXw2eFbN5oOfc8Po-71" style="edgeStyle=none;rounded=0;orthogonalLoop=1;jettySize=auto;html=1;" parent="1" source="8j1zaXw2eFbN5oOfc8Po-2" target="8j1zaXw2eFbN5oOfc8Po-70" edge="1">
          <mxGeometry relative="1" as="geometry">
            <Array as="points">
              <mxPoint x="-6210" y="2150"/>
              <mxPoint x="-6210" y="2185"/>
            </Array>
          </mxGeometry>
        </mxCell>
        <mxCell id="8j1zaXw2eFbN5oOfc8Po-72" value="isNamespaceAware:boolean(false)" style="text;html=1;resizable=0;points=[];align=center;verticalAlign=middle;labelBackgroundColor=#ffffff;" parent="8j1zaXw2eFbN5oOfc8Po-71" vertex="1" connectable="0">
          <mxGeometry x="-0.3097" y="-12" relative="1" as="geometry">
            <mxPoint x="67.5" y="8" as="offset"/>
          </mxGeometry>
        </mxCell>
        <mxCell id="8j1zaXw2eFbN5oOfc8Po-74" value="&lt;pre style=&quot;font-family: &amp;#34;droid sans mono&amp;#34; ; font-size: 10px&quot;&gt;&lt;pre style=&quot;font-family: &amp;#34;droid sans mono&amp;#34; ; font-size: 10px&quot;&gt;&lt;pre style=&quot;font-family: &amp;#34;droid sans mono&amp;#34; ; font-size: 10px&quot;&gt;&lt;pre style=&quot;font-family: &amp;#34;droid sans mono&amp;#34; ; font-size: 10px&quot;&gt;XmlBeanDefinitionReader&lt;/pre&gt;&lt;/pre&gt;&lt;/pre&gt;&lt;/pre&gt;" style="shape=umlLifeline;perimeter=lifelinePerimeter;whiteSpace=wrap;html=1;container=1;collapsible=0;recursiveResize=0;outlineConnect=0;fontStyle=0;labelBackgroundColor=none;fontSize=10;fontColor=#000000;verticalAlign=bottom;" parent="1" vertex="1">
          <mxGeometry x="-5402" y="960" width="150" height="410" as="geometry"/>
        </mxCell>
        <mxCell id="8j1zaXw2eFbN5oOfc8Po-75" value="" style="html=1;points=[];perimeter=orthogonalPerimeter;labelBackgroundColor=none;fillColor=#ffffff;fontSize=10;fontColor=#000000;align=left;" parent="8j1zaXw2eFbN5oOfc8Po-74" vertex="1">
          <mxGeometry x="70" y="63" width="10" height="309" as="geometry"/>
        </mxCell>
        <mxCell id="8j1zaXw2eFbN5oOfc8Po-80" style="edgeStyle=none;rounded=0;orthogonalLoop=1;jettySize=auto;html=1;" parent="8j1zaXw2eFbN5oOfc8Po-74" source="8j1zaXw2eFbN5oOfc8Po-74" target="8j1zaXw2eFbN5oOfc8Po-75" edge="1">
          <mxGeometry relative="1" as="geometry">
            <Array as="points">
              <mxPoint x="123" y="44"/>
              <mxPoint x="123" y="82"/>
            </Array>
          </mxGeometry>
        </mxCell>
        <mxCell id="8j1zaXw2eFbN5oOfc8Po-81" value="registerBeanDefinitions(doc, resource);&lt;br&gt;" style="text;html=1;resizable=0;points=[];align=center;verticalAlign=middle;labelBackgroundColor=#ffffff;" parent="8j1zaXw2eFbN5oOfc8Po-80" vertex="1" connectable="0">
          <mxGeometry x="-0.1867" y="-8" relative="1" as="geometry">
            <mxPoint x="73.5" y="11.5" as="offset"/>
          </mxGeometry>
        </mxCell>
        <mxCell id="8j1zaXw2eFbN5oOfc8Po-82" style="edgeStyle=none;rounded=0;orthogonalLoop=1;jettySize=auto;html=1;" parent="8j1zaXw2eFbN5oOfc8Po-74" source="8j1zaXw2eFbN5oOfc8Po-75" target="8j1zaXw2eFbN5oOfc8Po-75" edge="1">
          <mxGeometry relative="1" as="geometry">
            <Array as="points">
              <mxPoint x="117" y="89"/>
              <mxPoint x="117" y="119"/>
            </Array>
          </mxGeometry>
        </mxCell>
        <mxCell id="8j1zaXw2eFbN5oOfc8Po-83" value="documentReader=BeanUtils.instantiateClass(this.documentReaderClass)" style="text;html=1;resizable=0;points=[];align=center;verticalAlign=middle;labelBackgroundColor=#ffffff;" parent="8j1zaXw2eFbN5oOfc8Po-82" vertex="1" connectable="0">
          <mxGeometry x="-0.2912" y="-9" relative="1" as="geometry">
            <mxPoint x="-26.5" y="14.5" as="offset"/>
          </mxGeometry>
        </mxCell>
        <mxCell id="8j1zaXw2eFbN5oOfc8Po-86" value="" style="html=1;points=[];perimeter=orthogonalPerimeter;labelBackgroundColor=none;fillColor=#ffffff;fontSize=10;fontColor=#000000;align=left;" parent="8j1zaXw2eFbN5oOfc8Po-74" vertex="1">
          <mxGeometry x="75" y="153" width="10" height="69" as="geometry"/>
        </mxCell>
        <mxCell id="8j1zaXw2eFbN5oOfc8Po-87" style="edgeStyle=none;rounded=0;orthogonalLoop=1;jettySize=auto;html=1;" parent="8j1zaXw2eFbN5oOfc8Po-74" source="8j1zaXw2eFbN5oOfc8Po-75" target="8j1zaXw2eFbN5oOfc8Po-86" edge="1">
          <mxGeometry relative="1" as="geometry">
            <Array as="points">
              <mxPoint x="117" y="132"/>
              <mxPoint x="117" y="160"/>
            </Array>
          </mxGeometry>
        </mxCell>
        <mxCell id="8j1zaXw2eFbN5oOfc8Po-88" value="createReaderContext(resource):XmlReaderContext" style="text;html=1;resizable=0;points=[];align=center;verticalAlign=middle;labelBackgroundColor=#ffffff;" parent="8j1zaXw2eFbN5oOfc8Po-87" vertex="1" connectable="0">
          <mxGeometry x="-0.2401" y="-7" relative="1" as="geometry">
            <mxPoint x="15" y="13" as="offset"/>
          </mxGeometry>
        </mxCell>
        <mxCell id="8j1zaXw2eFbN5oOfc8Po-89" value="" style="html=1;points=[];perimeter=orthogonalPerimeter;labelBackgroundColor=none;fillColor=#ffffff;fontSize=10;fontColor=#000000;align=left;" parent="8j1zaXw2eFbN5oOfc8Po-74" vertex="1">
          <mxGeometry x="80" y="177.5" width="10" height="35" as="geometry"/>
        </mxCell>
        <mxCell id="8j1zaXw2eFbN5oOfc8Po-90" style="edgeStyle=none;rounded=0;orthogonalLoop=1;jettySize=auto;html=1;" parent="8j1zaXw2eFbN5oOfc8Po-74" source="8j1zaXw2eFbN5oOfc8Po-86" target="8j1zaXw2eFbN5oOfc8Po-89" edge="1">
          <mxGeometry relative="1" as="geometry">
            <Array as="points">
              <mxPoint x="137" y="170"/>
              <mxPoint x="137" y="195"/>
            </Array>
          </mxGeometry>
        </mxCell>
        <mxCell id="8j1zaXw2eFbN5oOfc8Po-91" value="getNamespaceHandlerResolver()" style="text;html=1;resizable=0;points=[];align=center;verticalAlign=middle;labelBackgroundColor=#ffffff;" parent="8j1zaXw2eFbN5oOfc8Po-90" vertex="1" connectable="0">
          <mxGeometry x="-0.1613" y="-7" relative="1" as="geometry">
            <mxPoint x="55.5" y="10.5" as="offset"/>
          </mxGeometry>
        </mxCell>
        <mxCell id="8j1zaXw2eFbN5oOfc8Po-95" value="&lt;pre style=&quot;font-family: &amp;#34;droid sans mono&amp;#34; ; font-size: 10px&quot;&gt;&lt;pre style=&quot;font-family: &amp;#34;droid sans mono&amp;#34; ; font-size: 10px&quot;&gt;&lt;pre style=&quot;font-family: &amp;#34;droid sans mono&amp;#34; ; font-size: 10px&quot;&gt;&lt;pre style=&quot;font-family: &amp;#34;droid sans mono&amp;#34; ; font-size: 10px&quot;&gt;DefaultBeanDefinitionDocumentReader&lt;/pre&gt;&lt;/pre&gt;&lt;/pre&gt;&lt;/pre&gt;" style="shape=umlLifeline;perimeter=lifelinePerimeter;whiteSpace=wrap;html=1;container=1;collapsible=0;recursiveResize=0;outlineConnect=0;fontStyle=0;labelBackgroundColor=none;fontSize=10;fontColor=#000000;verticalAlign=bottom;" parent="1" vertex="1">
          <mxGeometry x="-5172" y="960" width="150" height="410" as="geometry"/>
        </mxCell>
        <mxCell id="8j1zaXw2eFbN5oOfc8Po-96" value="" style="html=1;points=[];perimeter=orthogonalPerimeter;labelBackgroundColor=none;fillColor=#ffffff;fontSize=10;fontColor=#000000;align=left;" parent="8j1zaXw2eFbN5oOfc8Po-95" vertex="1">
          <mxGeometry x="70" y="240" width="10" height="166" as="geometry"/>
        </mxCell>
        <mxCell id="8j1zaXw2eFbN5oOfc8Po-111" style="edgeStyle=none;rounded=0;orthogonalLoop=1;jettySize=auto;html=1;" parent="8j1zaXw2eFbN5oOfc8Po-95" source="8j1zaXw2eFbN5oOfc8Po-96" target="8j1zaXw2eFbN5oOfc8Po-96" edge="1">
          <mxGeometry relative="1" as="geometry">
            <Array as="points">
              <mxPoint x="100" y="247"/>
              <mxPoint x="100" y="281"/>
            </Array>
          </mxGeometry>
        </mxCell>
        <mxCell id="8j1zaXw2eFbN5oOfc8Po-113" value="Element root = doc.getDocumentElement();" style="text;html=1;resizable=0;points=[];align=center;verticalAlign=middle;labelBackgroundColor=#ffffff;" parent="8j1zaXw2eFbN5oOfc8Po-111" vertex="1" connectable="0">
          <mxGeometry x="-0.1377" relative="1" as="geometry">
            <mxPoint x="21" y="3" as="offset"/>
          </mxGeometry>
        </mxCell>
        <mxCell id="8j1zaXw2eFbN5oOfc8Po-109" style="edgeStyle=none;rounded=0;orthogonalLoop=1;jettySize=auto;html=1;" parent="1" source="8j1zaXw2eFbN5oOfc8Po-75" target="8j1zaXw2eFbN5oOfc8Po-96" edge="1">
          <mxGeometry relative="1" as="geometry">
            <Array as="points">
              <mxPoint x="-5209" y="1203"/>
            </Array>
          </mxGeometry>
        </mxCell>
        <mxCell id="8j1zaXw2eFbN5oOfc8Po-110" value="registerBeanDefinitions( doc, readerContext)" style="text;html=1;resizable=0;points=[];align=center;verticalAlign=middle;labelBackgroundColor=#ffffff;" parent="8j1zaXw2eFbN5oOfc8Po-109" vertex="1" connectable="0">
          <mxGeometry x="0.1674" y="-1" relative="1" as="geometry">
            <mxPoint x="-17" y="-12" as="offset"/>
          </mxGeometry>
        </mxCell>
        <mxCell id="8j1zaXw2eFbN5oOfc8Po-114" value="" style="html=1;points=[];perimeter=orthogonalPerimeter;labelBackgroundColor=none;fillColor=#ffffff;fontSize=10;fontColor=#000000;align=left;" parent="1" vertex="1">
          <mxGeometry x="-5097" y="1265" width="10" height="91" as="geometry"/>
        </mxCell>
        <mxCell id="8j1zaXw2eFbN5oOfc8Po-115" style="edgeStyle=none;rounded=0;orthogonalLoop=1;jettySize=auto;html=1;" parent="1" source="8j1zaXw2eFbN5oOfc8Po-96" target="8j1zaXw2eFbN5oOfc8Po-114" edge="1">
          <mxGeometry relative="1" as="geometry">
            <Array as="points">
              <mxPoint x="-5060" y="1252"/>
              <mxPoint x="-5060" y="1273"/>
            </Array>
          </mxGeometry>
        </mxCell>
        <mxCell id="8j1zaXw2eFbN5oOfc8Po-116" value="doRegisterBeanDefinitions(root):void" style="text;html=1;resizable=0;points=[];align=center;verticalAlign=middle;labelBackgroundColor=#ffffff;" parent="8j1zaXw2eFbN5oOfc8Po-115" vertex="1" connectable="0">
          <mxGeometry x="-0.4286" relative="1" as="geometry">
            <mxPoint x="88" y="8" as="offset"/>
          </mxGeometry>
        </mxCell>
        <mxCell id="8j1zaXw2eFbN5oOfc8Po-117" value="&lt;div&gt;// 解析前处理，留给子类实现， 模板方法设计模式&lt;/div&gt;&lt;div&gt;preProcessXml(root);&lt;/div&gt;&lt;div&gt;parseBeanDefinitions(root, this.delegate);&lt;/div&gt;&lt;div&gt;// 解析后处理， 留给子类实现， 模板方法设计模式&lt;/div&gt;&lt;div&gt;postProcessXml(root);&lt;/div&gt;" style="text;html=1;strokeColor=none;fillColor=none;align=left;verticalAlign=middle;whiteSpace=wrap;rounded=0;" parent="1" vertex="1">
          <mxGeometry x="-5078.5" y="1280" width="318" height="69" as="geometry"/>
        </mxCell>
        <mxCell id="8j1zaXw2eFbN5oOfc8Po-118" value="&lt;pre style=&quot;font-family: &amp;#34;droid sans mono&amp;#34; ; font-size: 10px&quot;&gt;&lt;pre style=&quot;font-family: &amp;#34;droid sans mono&amp;#34; ; font-size: 10px&quot;&gt;&lt;pre style=&quot;font-family: &amp;#34;droid sans mono&amp;#34; ; font-size: 10px&quot;&gt;&lt;pre style=&quot;font-family: &amp;#34;droid sans mono&amp;#34; ; font-size: 10px&quot;&gt;DefaultBeanDefinitionDocumentReader&lt;/pre&gt;&lt;/pre&gt;&lt;/pre&gt;&lt;/pre&gt;" style="shape=umlLifeline;perimeter=lifelinePerimeter;whiteSpace=wrap;html=1;container=1;collapsible=0;recursiveResize=0;outlineConnect=0;fontStyle=0;labelBackgroundColor=none;fontSize=10;fontColor=#000000;verticalAlign=bottom;" parent="1" vertex="1">
          <mxGeometry x="-4668.5" y="960" width="150" height="410" as="geometry"/>
        </mxCell>
        <mxCell id="8j1zaXw2eFbN5oOfc8Po-119" value="" style="html=1;points=[];perimeter=orthogonalPerimeter;labelBackgroundColor=none;fillColor=#ffffff;fontSize=10;fontColor=#000000;align=left;" parent="8j1zaXw2eFbN5oOfc8Po-118" vertex="1">
          <mxGeometry x="70" y="53" width="10" height="351" as="geometry"/>
        </mxCell>
        <mxCell id="8j1zaXw2eFbN5oOfc8Po-122" value="" style="endArrow=classic;html=1;" parent="1" target="8j1zaXw2eFbN5oOfc8Po-119" edge="1">
          <mxGeometry width="50" height="50" relative="1" as="geometry">
            <mxPoint x="-4833.5" y="1034" as="sourcePoint"/>
            <mxPoint x="-4758.5" y="1031" as="targetPoint"/>
          </mxGeometry>
        </mxCell>
        <mxCell id="8j1zaXw2eFbN5oOfc8Po-123" value="&lt;span style=&quot;text-align: left ; white-space: normal ; background-color: rgb(248 , 249 , 250)&quot;&gt;parseBeanDefinitions(root, this.delegate);&lt;/span&gt;" style="text;html=1;resizable=0;points=[];align=center;verticalAlign=middle;labelBackgroundColor=#ffffff;" parent="8j1zaXw2eFbN5oOfc8Po-122" vertex="1" connectable="0">
          <mxGeometry x="0.2556" relative="1" as="geometry">
            <mxPoint x="-22" y="-4" as="offset"/>
          </mxGeometry>
        </mxCell>
        <mxCell id="8j1zaXw2eFbN5oOfc8Po-125" value="&lt;div&gt;// 在Spring的XML配置里有两个大类Bean声明&lt;/div&gt;&lt;div&gt;// 一个为默认，如&lt;/div&gt;&lt;div&gt;// &amp;lt;bean id=&quot;test&quot; class=&quot;test.TestBean&quot; /&amp;gt;&lt;/div&gt;&lt;div&gt;// 另一种为自定义，如：&lt;/div&gt;&lt;div&gt;// &amp;lt;tx:annotation-driven /&amp;gt;&lt;/div&gt;" style="text;html=1;strokeColor=none;fillColor=none;align=left;verticalAlign=middle;whiteSpace=wrap;rounded=0;" parent="1" vertex="1">
          <mxGeometry x="-4565.5" y="1055" width="321" height="80" as="geometry"/>
        </mxCell>
        <mxCell id="8j1zaXw2eFbN5oOfc8Po-130" style="edgeStyle=none;rounded=0;orthogonalLoop=1;jettySize=auto;html=1;" parent="1" source="8j1zaXw2eFbN5oOfc8Po-126" target="8j1zaXw2eFbN5oOfc8Po-129" edge="1">
          <mxGeometry relative="1" as="geometry">
            <Array as="points">
              <mxPoint x="-4546.5" y="1196"/>
              <mxPoint x="-4546.5" y="1230"/>
            </Array>
          </mxGeometry>
        </mxCell>
        <mxCell id="8j1zaXw2eFbN5oOfc8Po-131" value="processBeanDefinition(ele,delegate)" style="text;html=1;resizable=0;points=[];align=center;verticalAlign=middle;labelBackgroundColor=#ffffff;" parent="8j1zaXw2eFbN5oOfc8Po-130" vertex="1" connectable="0">
          <mxGeometry x="-0.37" y="-12" relative="1" as="geometry">
            <mxPoint x="77.5" y="4.5" as="offset"/>
          </mxGeometry>
        </mxCell>
        <mxCell id="8j1zaXw2eFbN5oOfc8Po-126" value="" style="html=1;points=[];perimeter=orthogonalPerimeter;labelBackgroundColor=none;fillColor=#ffffff;fontSize=10;fontColor=#000000;align=left;" parent="1" vertex="1">
          <mxGeometry x="-4593.5" y="1159" width="10" height="202" as="geometry"/>
        </mxCell>
        <mxCell id="8j1zaXw2eFbN5oOfc8Po-127" style="edgeStyle=none;rounded=0;orthogonalLoop=1;jettySize=auto;html=1;" parent="1" source="8j1zaXw2eFbN5oOfc8Po-119" target="8j1zaXw2eFbN5oOfc8Po-126" edge="1">
          <mxGeometry relative="1" as="geometry">
            <Array as="points">
              <mxPoint x="-4548.5" y="1139"/>
              <mxPoint x="-4548.5" y="1182"/>
            </Array>
          </mxGeometry>
        </mxCell>
        <mxCell id="8j1zaXw2eFbN5oOfc8Po-128" value="parseDefaultElement(root,delegate)&lt;br&gt;分别对import alias bean beans做了不同处理" style="text;html=1;resizable=0;points=[];align=center;verticalAlign=middle;labelBackgroundColor=#ffffff;" parent="8j1zaXw2eFbN5oOfc8Po-127" vertex="1" connectable="0">
          <mxGeometry x="-0.2317" y="-6" relative="1" as="geometry">
            <mxPoint x="106" y="15" as="offset"/>
          </mxGeometry>
        </mxCell>
        <mxCell id="8j1zaXw2eFbN5oOfc8Po-129" value="" style="html=1;points=[];perimeter=orthogonalPerimeter;labelBackgroundColor=none;fillColor=#ffffff;fontSize=10;fontColor=#000000;align=left;" parent="1" vertex="1">
          <mxGeometry x="-4588.5" y="1210" width="10" height="143" as="geometry"/>
        </mxCell>
        <mxCell id="8j1zaXw2eFbN5oOfc8Po-133" value="&lt;div&gt;// 元素的解析以及信息的提取&lt;/div&gt;&lt;div&gt;BeanDefinitionHolder bdHolder=delegate.parseBeanDefinitionElement(ele);&lt;/div&gt;&lt;div&gt;&lt;div&gt;// 如果默认标签的子节点下有自定义属性 , 再次对自定义标签进行解析&lt;/div&gt;&lt;div&gt;bdHolder = delegate.decorateBeanDefinitionIfRequired(ele, bdHolder);&lt;/div&gt;&lt;/div&gt;&lt;div&gt;&lt;div&gt;// 对 bdHolder 的进行注册&lt;/div&gt;&lt;div&gt;// 委托给了 BeanDefinitionReaderUtils#registerBeanDefinition 来进行&lt;/div&gt;&lt;div&gt;BeanDefinitionReaderUtils.registerBeanDefinition(bdHolder, getReaderContext().getRegistry());&lt;/div&gt;&lt;/div&gt;&lt;div&gt;&lt;div&gt;// 发出事件响应，通知相关监听器，这个 bean 已经加载完成。&lt;/div&gt;&lt;div&gt;getReaderContext().fireComponentRegistered(new BeanComponentDefinition(bdHolder));&lt;/div&gt;&lt;/div&gt;" style="text;html=1;strokeColor=none;fillColor=none;align=left;verticalAlign=middle;whiteSpace=wrap;rounded=0;" parent="1" vertex="1">
          <mxGeometry x="-4565.5" y="1234.5" width="601" height="143" as="geometry"/>
        </mxCell>
      </root>
    </mxGraphModel>
  </diagram>
</mxfile>
